<svg xmlns="http://www.w3.org/2000/svg" id="Layer_2" viewBox="0 0 241.51 280.09"><defs><style>.cls-1{fill:#97d2d5;}.cls-2{fill:#0e3e68;}</style></defs><g id="Layer_1-2"><g><circle class="cls-1" cx="77.31" cy="162.35" r="77.31"></circle><path class="cls-2" d="M162.51,195.95h-23.65c-3.16,0-5.73-2.56-5.73-5.73v-12.67h-12.68c-3.16,0-5.73-2.56-5.73-5.73v-23.64c0-3.16,2.56-5.73,5.73-5.73h12.68v-12.69c0-3.16,2.56-5.73,5.73-5.73h23.65c3.16,0,5.73,2.56,5.73,5.73v12.69h12.68c3.16,0,5.73,2.56,5.73,5.73v23.64c0,3.16-2.56,5.73-5.73,5.73h-12.68v12.67c0,3.16-2.56,5.73-5.73,5.73Zm-17.92-11.45h12.2v-12.67c0-3.16,2.56-5.73,5.73-5.73h12.68v-12.18h-12.68c-3.16,0-5.73-2.56-5.73-5.73v-12.69h-12.2v12.69c0,3.16-2.56,5.73-5.73,5.73h-12.68v12.18h12.68c3.16,0,5.73,2.56,5.73,5.73v12.67Z"></path><path class="cls-2" d="M150.68,223.18c-34.84,0-63.19-28.35-63.19-63.19s28.35-63.19,63.19-63.19,63.19,28.35,63.19,63.19-28.35,63.19-63.19,63.19Zm0-114.93c-28.53,0-51.74,23.21-51.74,51.74s23.21,51.74,51.74,51.74,51.74-23.21,51.74-51.74-23.21-51.74-51.74-51.74Z"></path><g><path class="cls-2" d="M212.51,36.02H88.86c-6.54,0-11.87-5.32-11.87-11.87V11.87c0-6.54,5.32-11.87,11.87-11.87h123.65c6.54,0,11.87,5.32,11.87,11.87v12.28c0,6.54-5.32,11.87-11.87,11.87ZM88.86,11.45c-.23,0-.41,.18-.41,.41v12.28c0,.23,.18,.41,.41,.41h123.65c.23,0,.41-.18,.41-.41V11.87c0-.23-.18-.41-.41-.41H88.86Z"></path><path class="cls-2" d="M135.5,35.19c-3.16,0-5.73-2.56-5.73-5.73V6.55c0-3.16,2.56-5.73,5.73-5.73s5.73,2.56,5.73,5.73V29.46c0,3.16-2.56,5.73-5.73,5.73Z"></path><path class="cls-2" d="M105.12,35.19c-3.16,0-5.73-2.56-5.73-5.73V6.55c0-3.16,2.56-5.73,5.73-5.73s5.73,2.56,5.73,5.73V29.46c0,3.16-2.56,5.73-5.73,5.73Z"></path><path class="cls-2" d="M196.25,35.19c-3.16,0-5.73-2.56-5.73-5.73V6.55c0-3.16,2.56-5.73,5.73-5.73s5.73,2.56,5.73,5.73V29.46c0,3.16-2.56,5.73-5.73,5.73Z"></path><path class="cls-2" d="M165.87,35.19c-3.16,0-5.73-2.56-5.73-5.73V6.55c0-3.16,2.56-5.73,5.73-5.73s5.73,2.56,5.73,5.73V29.46c0,3.16-2.56,5.73-5.73,5.73Z"></path></g><path class="cls-2" d="M201.3,55.34H100.07c-3.16,0-5.73-2.56-5.73-5.73v-15.51c0-3.16,2.56-5.73,5.73-5.73s5.73,2.56,5.73,5.73v9.79h89.78v-9.79c0-3.16,2.56-5.73,5.73-5.73s5.73,2.56,5.73,5.73v15.51c0,3.16-2.56,5.73-5.73,5.73Z"></path><path class="cls-2" d="M222.11,280.09H79.26c-10.69,0-19.4-8.7-19.4-19.4V69.57c0-13.77,11.2-24.96,24.96-24.96H216.55c13.77,0,24.96,11.2,24.96,24.96v191.13c0,10.69-8.7,19.4-19.4,19.4ZM84.82,56.06c-7.45,0-13.51,6.06-13.51,13.51v191.13c0,4.38,3.56,7.94,7.94,7.94H222.11c4.38,0,7.94-3.56,7.94-7.94V69.57c0-7.45-6.06-13.51-13.51-13.51H84.82Z"></path></g></g></svg>