<svg xmlns="http://www.w3.org/2000/svg" xmlns:xlink="http://www.w3.org/1999/xlink" id="Layer_2" viewBox="0 0 274.32 258.65"><defs><style>.cls-1{fill:url(#linear-gradient);}.cls-2{fill:#eaeef6;}.cls-3{fill:#fff;}.cls-4{fill:#73a82d;}.cls-5{fill:#b3d280;}.cls-6{fill:#a4c64f;}.cls-7{fill:#c6d76b;}.cls-8{fill:#c9d5e4;}.cls-9{fill:#cce0a8;}.cls-10{fill:#d4ddea;}.cls-11{fill:#445161;}.cls-12{fill:#6fa12e;}.cls-13{fill:#8ab725;}.cls-14{fill:url(#linear-gradient-8);}.cls-15{fill:url(#linear-gradient-9);}.cls-16{fill:url(#linear-gradient-3);}.cls-17{fill:url(#linear-gradient-4);}.cls-18{fill:url(#linear-gradient-2);}.cls-19{fill:url(#linear-gradient-6);}.cls-20{fill:url(#linear-gradient-7);}.cls-21{fill:url(#linear-gradient-5);}.cls-22{fill:url(#linear-gradient-14);}.cls-23{fill:url(#linear-gradient-13);}.cls-24{fill:url(#linear-gradient-12);}.cls-25{fill:url(#linear-gradient-10);}.cls-26{fill:url(#linear-gradient-11);}</style><linearGradient id="linear-gradient" x1="34.08" y1="130.51" x2="142.27" y2="238.7" gradientUnits="userSpaceOnUse"><stop offset="0" stop-color="#5f6e7b"></stop><stop offset="1" stop-color="#445161"></stop></linearGradient><linearGradient id="linear-gradient-2" x1="107.39" y1="137.32" x2="167.99" y2="76.73" gradientUnits="userSpaceOnUse"><stop offset="0" stop-color="#344147"></stop><stop offset="1" stop-color="#445161"></stop></linearGradient><linearGradient id="linear-gradient-3" x1="0" y1="145" x2="176.35" y2="145" xlink:href="#linear-gradient"></linearGradient><linearGradient id="linear-gradient-4" x1="39.19" y1="246.89" x2="137.16" y2="246.89" xlink:href="#linear-gradient"></linearGradient><linearGradient id="linear-gradient-5" x1="301.17" y1="-15.36" x2="338.31" y2="21.79" gradientTransform="translate(351.09 30.65) rotate(-180)" gradientUnits="userSpaceOnUse"><stop offset="0" stop-color="#a9c84e"></stop><stop offset="1" stop-color="#79ac2b"></stop></linearGradient><linearGradient id="linear-gradient-6" x1="24.74" y1="71.77" x2="69.31" y2="116.34" gradientUnits="userSpaceOnUse"><stop offset="0" stop-color="#a9c84e"></stop><stop offset="1" stop-color="#8ab725"></stop></linearGradient><linearGradient id="linear-gradient-7" x1="199.86" y1="31.35" x2="199.86" y2="258.65" gradientUnits="userSpaceOnUse"><stop offset="0" stop-color="#f2f5fc"></stop><stop offset="1" stop-color="#d4ddea"></stop></linearGradient><linearGradient id="linear-gradient-8" x1="199.86" y1="180.27" x2="263.55" y2="180.27" gradientUnits="userSpaceOnUse"><stop offset="0" stop-color="#a9c84e"></stop><stop offset="1" stop-color="#d1dc6a"></stop></linearGradient><linearGradient id="linear-gradient-9" x1="199.86" y1="250.81" x2="199.86" y2="164.59" gradientUnits="userSpaceOnUse"><stop offset="0" stop-color="#a9c84e"></stop><stop offset="1" stop-color="#73a82d"></stop></linearGradient><linearGradient id="linear-gradient-10" x1="167.27" y1="239.05" x2="167.27" y2="164.59" xlink:href="#linear-gradient-8"></linearGradient><linearGradient id="linear-gradient-11" x1="316.61" y1="-47.88" x2="269.14" y2="19.93" gradientTransform="translate(379.09 52.65) rotate(-180)" xlink:href="#linear-gradient-5"></linearGradient><linearGradient id="linear-gradient-12" x1="261.67" y1="14.7" x2="309.15" y2="-53.1" gradientTransform="translate(379.09 52.65) rotate(-180)" xlink:href="#linear-gradient-8"></linearGradient><linearGradient id="linear-gradient-13" x1="320.25" y1="21.79" x2="320.25" y2="-16.38" gradientTransform="translate(351.09 30.65) rotate(-180)" xlink:href="#linear-gradient-8"></linearGradient><linearGradient id="linear-gradient-14" x1="18.05" y1="78.45" x2="62.63" y2="123.03" xlink:href="#linear-gradient-8"></linearGradient></defs><g id="Layer_1-2"><g><g><path class="cls-1" d="M137.16,235.13l5.92-2.22c15.3-5.74,25.43-20.36,25.43-36.69v-39.46H7.84v39.46c0,16.34,10.13,30.96,25.43,36.7l5.92,2.22h97.97Z"></path><path class="cls-18" d="M103.31,133.24l40.23-61.43c1.49-2.28,3.74-3.95,6.35-4.72h0c6.07-1.79,12.45,1.68,14.23,7.76h0c.77,2.61,.58,5.41-.52,7.89l-22.43,50.5h-37.86Z"></path><rect class="cls-16" y="133.24" width="176.35" height="23.51" rx="2" ry="2"></rect><path class="cls-17" d="M39.19,235.13h97.97v21.51c0,1.1-.9,2-2,2H41.19c-1.1,0-2-.9-2-2v-21.51h0Z"></path></g><path class="cls-11" d="M39.19,235.13v3.92h54.86c4.33,0,7.84,3.51,7.84,7.84v3.92c0,4.33,3.51,7.84,7.84,7.84h19.59c4.33,0,7.84-3.51,7.84-7.84v-15.68H39.19Z"></path><path class="cls-11" d="M164.59,156.76H7.84c0,2.16,1.75,3.92,3.92,3.92H101.89c6.49,0,11.76,5.26,11.76,11.76v23.79c0,16.34-3.38,30.96-8.48,36.69l-1.97,2.22h33.96l5.92-2.22c15.3-5.74,25.43-20.36,25.43-36.69v-39.46h-3.92Z"></path><path class="cls-21" d="M42.49,16.29c-7.68-7.68-18.86-10.04-29.72-7.43-2.61,10.86-.25,22.04,7.43,29.72,7.68,7.68,18.86,10.04,29.72,7.43,2.61-10.86,.25-22.04-7.43-29.72Z"></path><path class="cls-19" d="M33.65,107.43c9.21,9.21,22.63,12.05,35.66,8.91,3.13-13.03,.3-26.45-8.91-35.66-9.21-9.21-22.63-12.05-35.66-8.91-3.13,13.03-.3,26.45,8.91,35.66Z"></path><g><path class="cls-20" d="M234.31,133.9c-9.16-4.78-14.85-14.11-14.85-24.35V52.56c0-5.27,.63-10.75,3.35-15.27,.77-1.27,.75-2.84-.02-4.09-.72-1.16-1.97-1.86-3.33-1.86h-39.19c-1.36,0-2.62,.7-3.33,1.86-.77,1.24-.79,2.82-.02,4.09,2.73,4.51,3.35,10,3.35,15.27v56.99c0,10.23-5.69,19.56-14.85,24.35-24.68,12.89-40.02,38.17-40.02,65.97,0,20.9,8.66,40.54,23.91,54.63,2.9,2.68,6.72,4.15,10.67,4.15h79.76c3.95,0,7.77-1.47,10.67-4.15,15.25-14.09,23.91-33.73,23.91-54.63,0-27.8-15.33-53.08-40.02-65.97Z"></path><path class="cls-8" d="M168.51,196.22v-39.46c4.33,0,7.84-3.51,7.84-7.84v-7.84c0-4.33-3.51-7.84-7.84-7.84h-2.03c-.36,.21-.69,.46-1.07,.65-24.68,12.89-40.02,38.17-40.02,65.97,0,14.41,4.2,28.17,11.76,39.98v-4.71l5.92-2.22c15.3-5.74,25.43-20.36,25.43-36.69Z"></path><path class="cls-14" d="M263.55,180.27c0,6.49-8.55,11.76-19.1,11.76-15.92,0-44.58-11.76-44.58-11.76,0,0,28.66-11.76,44.58-11.76,10.55,0,19.1,5.27,19.1,11.76Z"></path><path class="cls-15" d="M263.55,180.27c0,2.05-.86,3.98-2.36,5.65-3.01,3.36-8.52,3-11.11-.68-2.11-3-5.59-4.97-9.55-4.97s-7.53,2-9.65,5.06c-1.69,2.44-4.56,3.79-7.42,2.99-12.32-3.44-23.58-8.05-23.58-8.05,0,0-2.86-1.17-7.27-2.77-2.42-.88-4.36-2.77-5.24-5.19-1.64-4.5-5.94-7.72-11.01-7.72-2.79,0-5.35,.97-7.36,2.6-1.93,1.55-4.4,2.25-6.85,1.89-2.44-.36-4.76-.57-6.85-.57-10.55,0-18.88,5.26-19.84,11.67-.96,6.41-2.2,12.86-2.2,19.68,0,18.59,7.63,35.39,19.92,47.47,2.24,2.2,5.24,3.47,8.38,3.47h76.65c3.14,0,6.14-1.27,8.38-3.47,12.29-12.08,19.92-28.88,19.92-47.47,0-6.82-1.03-13.4-2.94-19.59Z"></path><path class="cls-13" d="M168.51,196.22v-28.72c-1.85,1.31-4.12,1.91-6.37,1.58-2.44-.36-4.76-.57-6.85-.57-10.55,0-18.88,5.26-19.84,11.67-.96,6.41-2.2,12.86-2.2,19.68,0,12.17,3.32,23.54,9.03,33.36l.82-.31c15.3-5.74,25.43-20.36,25.43-36.69Z"></path><path class="cls-3" d="M180.47,141.08h-3.47c-5.98,0-10.9,2.76-13.85,7.23-9,13.63-14.23,31.95-14.23,51.56,0,11.98,1.99,23.51,5.63,33.85,1.12,3.18,4.08,5.34,7.45,5.34h15.8c4.63,0,8.23-3.98,7.79-8.59-.91-9.48-1.4-19.86-1.4-30.6,0-18.61,1.45-36.07,3.97-49.45,.91-4.85-2.75-9.33-7.68-9.33Z"></path><path class="cls-2" d="M168.51,196.22v-39.46c4.33,0,7.84-3.51,7.84-7.84v-7.8c-5.69,.19-10.36,2.89-13.2,7.19-9,13.63-14.23,31.95-14.23,51.56,0,9.7,1.36,19.06,3.79,27.78,9.77-7.27,15.81-18.83,15.81-31.42Z"></path><path class="cls-3" d="M186.46,52.56v56.99c0,4.5-.76,8.82-2.13,12.66-1.25,3.48,1.4,7.12,5.1,7.12h0c2.66,0,4.96-1.92,5.34-4.56,.63-4.42,.98-9.69,.98-15.22V52.56c0-5.27-.13-10.75-.71-15.27-.16-1.27-.16-2.84,0-4.09,.15-1.16,.42-1.86,.7-1.86h-9.28c-.93,0-1.79,.7-2.28,1.86-.53,1.24-.54,2.82-.01,4.09,1.87,4.51,2.3,10,2.3,15.27Z"></path><path class="cls-25" d="M177.8,239.05c4.63,0,8.23-3.98,7.79-8.59-.91-9.48-1.4-19.86-1.4-30.6s.5-21.25,1.41-30.72c-2.14-2.76-5.48-4.55-9.25-4.55-2.79,0-5.36,.98-7.37,2.61-1.92,1.55-4.38,2.24-6.82,1.88-2.45-.36-4.77-.57-6.87-.57-.55,0-1.07,.07-1.6,.1-3.06,9.62-4.77,20.21-4.77,31.25,0,11.98,1.99,23.51,5.63,33.85,1.12,3.18,4.08,5.34,7.45,5.34h15.8Z"></path><circle class="cls-5" cx="205.74" cy="84.26" r="5.88"></circle><circle class="cls-9" cx="201.82" cy="131.28" r="5.88"></circle><circle class="cls-9" cx="193.99" cy="143.04" r="1.96"></circle><circle class="cls-3" cx="190.07" cy="103.85" r="1.96"></circle><circle class="cls-9" cx="201.82" cy="68.58" r="1.96"></circle><circle class="cls-5" cx="237.09" cy="154.8" r="1.96"></circle><circle class="cls-5" cx="209.66" cy="115.61" r="1.96"></circle><circle class="cls-6" cx="195.95" cy="54.86" r="3.92"></circle><path class="cls-5" d="M192.03,54.86c0,2.09,1.65,3.76,3.71,3.88v-6.18c0-.52,0-1.05-.01-1.57-2.06,.12-3.7,1.79-3.7,3.87Z"></path><circle class="cls-9" cx="195.95" cy="164.59" r="3.92"></circle><circle class="cls-5" cx="215.54" cy="156.76" r="7.84"></circle><circle class="cls-7" cx="188.11" cy="7.84" r="7.84"></circle><circle class="cls-13" cx="209.66" cy="21.55" r="5.88"></circle><circle class="cls-12" cx="211.62" cy="211.62" r="3.92"></circle><circle class="cls-4" cx="195.95" cy="192.03" r="3.92"></circle><circle class="cls-12" cx="235.13" cy="231.22" r="3.92"></circle><circle class="cls-12" cx="201.82" cy="233.17" r="5.88"></circle><circle class="cls-12" cx="241.01" cy="209.66" r="5.88"></circle><circle class="cls-7" cx="190.07" cy="21.55" r="1.96"></circle><circle class="cls-7" cx="205.74" cy="5.88" r="1.96"></circle><path class="cls-10" d="M133.24,199.86c0-24.87,13.72-47.49,35.81-59.02,2.18-1.14,4.15-2.54,6.01-4.05-1.4-2.13-3.81-3.55-6.55-3.55h-2.03c-.36,.21-.69,.46-1.07,.65-24.68,12.89-40.02,38.17-40.02,65.97,0,14.52,4.15,28.23,11.76,40.04v-4.77l5.04-1.89c-5.83-10-8.96-21.39-8.96-33.38Z"></path><path class="cls-6" d="M168.51,196.22v-28.72c-1.84,1.31-4.1,1.91-6.36,1.58-2.45-.36-4.77-.57-6.87-.57-.55,0-1.07,.07-1.6,.1-3.06,9.62-4.77,20.21-4.77,31.25,0,9.7,1.36,19.06,3.79,27.78,9.77-7.27,15.81-18.83,15.81-31.42Z"></path><circle class="cls-13" cx="156.76" cy="195.95" r="3.92"></circle></g><path class="cls-12" d="M70.32,109.75c.43-5.06-.05-10.03-1.47-14.7l-12.36,1.29,13.82,13.41Z"></path><path class="cls-26" d="M104.05,84.45c12.28-12.28,16.06-30.17,11.89-47.55-17.37-4.18-35.27-.39-47.55,11.89-12.28,12.28-16.06,30.17-11.89,47.55,17.37,4.18,35.27,.39,47.55-11.89Z"></path><path class="cls-24" d="M104.05,84.45c12.28-12.28,16.06-30.17,11.89-47.55l-59.43,59.43c17.37,4.18,35.27,.39,47.55-11.89Z"></path><path class="cls-23" d="M20.21,38.58c7.68,7.68,18.86,10.04,29.72,7.43L12.78,8.86c-2.61,10.86-.25,22.04,7.43,29.72Z"></path><path class="cls-22" d="M33.65,107.43c9.21,9.21,22.63,12.05,35.66,8.92L24.74,71.77c-3.13,13.03-.3,26.45,8.91,35.66Z"></path></g></g></svg>