<svg xmlns="http://www.w3.org/2000/svg" id="Layer_2" viewBox="0 0 257.03 275.19"><defs><style>.cls-1{fill:#97d2d5;}.cls-2{fill:#0e3e68;}</style></defs><g id="Layer_1-2"><g><circle class="cls-1" cx="155.47" cy="120.29" r="73.88"></circle><g><path class="cls-2" d="M29.52,261.11c-4.83,0-9.56-1.39-13.71-4.09-5.66-3.67-9.55-9.33-10.95-15.94s-.15-13.36,3.53-19.02c3.67-5.66,9.34-9.55,15.94-10.95l46.83-9.95c13.65-2.89,27.08,5.84,29.97,19.47,1.41,6.6,.15,13.35-3.52,19.01-3.67,5.66-9.33,9.55-15.94,10.95h0l-46.84,9.95c-1.77,.38-3.54,.56-5.31,.56Zm46.92-49.56c-1,0-2,.1-3.01,.32l-46.83,9.95c-3.74,.8-6.95,3-9.04,6.21-2.08,3.21-2.79,7.04-2,10.78,.8,3.74,3,6.95,6.21,9.03,3.2,2.09,7.03,2.78,10.78,2l46.84-9.95c3.74-.8,6.95-3,9.04-6.21,2.08-3.21,2.8-7.04,2-10.78-.8-3.74-3-6.95-6.21-9.04-2.35-1.53-5.03-2.31-7.77-2.31Zm4.09,33.69h0Z"></path><path class="cls-2" d="M57.1,255.69c-2.53,0-4.8-1.76-5.35-4.33l-8.23-38.73c-.63-2.96,1.26-5.86,4.21-6.49,2.96-.65,5.86,1.26,6.49,4.21l8.23,38.73c.63,2.96-1.26,5.86-4.21,6.49-.38,.08-.77,.12-1.14,.12Z"></path></g><g><path class="cls-2" d="M231.76,174.27c-1.65,0-3.33-.16-5.01-.51h0l-46.93-9.48c-13.66-2.76-22.53-16.11-19.77-29.77,2.76-13.66,16.13-22.53,29.77-19.76l46.93,9.48c6.62,1.34,12.32,5.17,16.05,10.79,3.73,5.62,5.05,12.36,3.71,18.98-2.42,11.97-12.99,20.27-24.76,20.27Zm-2.84-11.23c7.77,1.56,15.31-3.47,16.88-11.21,.76-3.75,0-7.57-2.11-10.76-2.12-3.19-5.35-5.36-9.1-6.12l-46.93-9.48c-3.75-.76-7.57,0-10.76,2.11-3.19,2.12-5.36,5.35-6.12,9.1-.76,3.75,0,7.57,2.11,10.76s5.35,5.36,9.1,6.12l46.93,9.48Z"></path><path class="cls-2" d="M204.37,169.14c-.36,0-.72-.03-1.09-.11-2.96-.6-4.88-3.48-4.28-6.45l7.84-38.81c.6-2.96,3.49-4.9,6.45-4.28,2.96,.6,4.88,3.48,4.28,6.45l-7.84,38.81c-.52,2.6-2.81,4.39-5.36,4.39Z"></path></g><g><path class="cls-2" d="M72.26,70.67c-1.68,0-3.37-.17-5.05-.51l-46.93-9.48c-6.62-1.34-12.32-5.17-16.05-10.79C.49,44.27-.83,37.53,.51,30.91,3.27,17.26,16.62,8.36,30.28,11.15l46.93,9.48c13.66,2.76,22.53,16.11,19.77,29.77-1.34,6.61-5.17,12.32-10.79,16.05-4.19,2.78-9.01,4.22-13.93,4.22ZM25.27,21.59c-6.68,0-12.66,4.7-14.04,11.49-.76,3.75,0,7.57,2.11,10.76,2.12,3.19,5.35,5.36,9.1,6.12l46.93,9.48h0c3.76,.76,7.57,0,10.76-2.11,3.19-2.12,5.36-5.35,6.12-9.1,.76-3.75,0-7.57-2.11-10.76s-5.35-5.36-9.1-6.12L28.11,21.87c-.95-.19-1.91-.28-2.84-.28Z"></path><path class="cls-2" d="M44.83,65.53c-.36,0-.72-.03-1.09-.11-2.96-.6-4.88-3.48-4.28-6.45l7.84-38.81c.6-2.96,3.48-4.88,6.45-4.28,2.96,.6,4.88,3.48,4.28,6.45l-7.84,38.81c-.52,2.6-2.81,4.39-5.36,4.39Z"></path></g><path class="cls-2" d="M69.73,180.64c-6.81,0-13.58-1.61-19.83-4.79-10.44-5.31-18.19-14.37-21.81-25.5-3.63-11.14-2.7-23.02,2.61-33.45,5.31-10.44,14.37-18.19,25.5-21.81,11.13-3.63,23.02-2.7,33.45,2.61,10.44,5.31,18.19,14.37,21.81,25.5,3.63,11.14,2.7,23.02-2.61,33.45-5.31,10.44-14.37,18.19-25.5,21.81-4.47,1.46-9.05,2.18-13.62,2.18Zm.08-76.78c-3.43,0-6.87,.54-10.22,1.63-8.36,2.72-15.15,8.53-19.14,16.37-3.98,7.83-4.68,16.75-1.96,25.1,2.72,8.36,8.53,15.15,16.37,19.14,7.83,3.98,16.74,4.67,25.1,1.96,8.36-2.72,15.15-8.53,19.14-16.37,3.98-7.83,4.68-16.75,1.96-25.1h0c-2.72-8.36-8.53-15.15-16.37-19.14-4.69-2.39-9.77-3.59-14.88-3.59Z"></path><path class="cls-2" d="M34.54,158.12c-2.09,0-4.08-1.2-4.99-3.23-1.24-2.76-.02-5.99,2.74-7.24l70.46-31.76c2.76-1.25,5.99-.02,7.24,2.74,1.24,2.76,.02,5.99-2.74,7.24l-70.46,31.76c-.73,.33-1.49,.49-2.24,.49Z"></path><path class="cls-2" d="M177.86,71.74c-5,0-9.99-1.06-14.68-3.17-8.74-3.93-15.42-11.02-18.83-19.97-3.4-8.95-3.11-18.7,.81-27.43,8.11-18.04,29.38-26.12,47.41-18.01,8.74,3.93,15.42,11.02,18.82,19.97,3.4,8.95,3.11,18.7-.81,27.43-3.93,8.74-11.02,15.42-19.97,18.82-4.14,1.57-8.45,2.36-12.75,2.36Zm.05-60.79c-9.51,0-18.62,5.48-22.76,14.7-2.73,6.07-2.93,12.84-.56,19.06,2.36,6.22,7.01,11.15,13.08,13.88,12.53,5.63,27.31,.02,32.94-12.51,2.73-6.07,2.93-12.84,.56-19.06-2.36-6.22-7.01-11.15-13.08-13.88-3.31-1.48-6.77-2.19-10.18-2.19Z"></path><path class="cls-2" d="M206.98,50.78c-.56,0-1.13-.09-1.69-.27l-58.21-18.89c-2.88-.93-4.45-4.02-3.52-6.89,.94-2.87,4.02-4.44,6.89-3.52l58.21,18.89c2.88,.93,4.45,4.02,3.52,6.89-.75,2.31-2.9,3.79-5.21,3.79Z"></path><path class="cls-2" d="M193.53,275.19c-8.26,0-16.25-2.71-22.9-7.84-7.96-6.14-13.05-15.01-14.33-24.98-1.29-9.97,1.39-19.84,7.53-27.79,6.14-7.96,15.01-13.05,24.98-14.33,9.96-1.3,19.84,1.38,27.79,7.53,7.96,6.14,13.04,15.01,14.33,24.98h0c1.29,9.97-1.39,19.84-7.53,27.79-6.14,7.96-15.01,13.05-24.98,14.33-1.64,.21-3.27,.32-4.89,.32Zm.14-64.31c-1.15,0-2.31,.07-3.47,.22-7.07,.91-13.36,4.52-17.71,10.16s-6.25,12.64-5.34,19.71c.91,7.07,4.52,13.36,10.16,17.71,5.64,4.35,12.63,6.25,19.71,5.34,7.07-.91,13.36-4.52,17.71-10.16,4.35-5.64,6.25-12.64,5.34-19.71-.91-7.07-4.52-13.36-10.16-17.71-4.71-3.64-10.38-5.56-16.24-5.56Z"></path><path class="cls-2" d="M162.13,250.63c-2.47,0-4.71-1.68-5.32-4.19-.71-2.94,1.1-5.9,4.04-6.6l62.94-15.19c2.92-.71,5.89,1.1,6.6,4.04,.71,2.94-1.1,5.9-4.04,6.6l-62.94,15.19c-.43,.1-.86,.15-1.29,.15Z"></path></g></g></svg>