<svg xmlns="http://www.w3.org/2000/svg" id="Layer_1" viewBox="0 0 64 64"><defs><style>.cls-1{fill:#ea5520;}.cls-2{fill:#7cb928;}.cls-3{fill:#1b181c;}.cls-4{fill:#389bd7;}</style></defs><path class="cls-1" d="M45.68,32c0-12.41-10.06-22.47-22.47-22.47S.73,19.59,.73,32s10.06,22.47,22.47,22.47c3.75,0,7.27-.92,10.38-2.54l12.1,2.54-2.54-12.1c1.62-3.1,2.54-6.63,2.54-10.38Zm-22.47,15.15c-8.36,0-15.15-6.78-15.15-15.15s6.78-15.14,15.15-15.14,15.14,6.78,15.14,15.14-6.78,15.15-15.14,15.15Z"></path><g><path class="cls-2" d="M23.21,20.95c-3.48,0-6.31,2.83-6.31,6.31,0,.94,.77,1.71,1.71,1.71s1.71-.77,1.71-1.71c0-1.59,1.29-2.89,2.89-2.89s2.89,1.29,2.89,2.89c0,1.04-.39,1.38-1.52,2.2-1.22,.89-3.08,2.24-3.08,5.35v.7c0,.94,.77,1.71,1.71,1.71s1.71-.76,1.71-1.71v-.7c0-1.32,.51-1.75,1.67-2.59,1.23-.9,2.93-2.13,2.93-4.97,0-3.48-2.83-6.31-6.31-6.31Z"></path><path class="cls-2" d="M23.21,39.41c-.94,0-1.71,.77-1.71,1.71v.21c0,.94,.77,1.71,1.71,1.71s1.71-.77,1.71-1.71v-.21c0-.94-.77-1.71-1.71-1.71Z"></path></g><polygon class="cls-4" points="51.54 .73 63.27 12.46 51.54 12.46 51.54 .73"></polygon><g><path class="cls-3" d="M63.79,11.94L52.06,.21c-.14-.14-.32-.21-.52-.21H16.37c-.4,0-.73,.33-.73,.73V10.07C6.55,13.22,0,21.86,0,32s6.55,18.78,15.63,21.93v9.33c0,.41,.33,.73,.73,.73H63.27c.4,0,.73-.33,.73-.73V12.46c0-.19-.08-.38-.21-.52ZM52.28,2.5l9.22,9.22h-9.22V2.5ZM1.47,32C1.47,20.01,11.22,10.26,23.21,10.26s21.74,9.75,21.74,21.74c0,3.54-.83,6.91-2.46,10.04-.08,.15-.1,.32-.07,.49l2.31,11-11-2.31c-.17-.04-.34-.01-.49,.07-3.13,1.63-6.5,2.46-10.04,2.46-11.99,0-21.74-9.75-21.74-21.74Zm15.63,30.53v-8.15c1.95,.53,3.99,.82,6.11,.82,3.69,0,7.21-.84,10.48-2.5l11.84,2.49c.05,.01,.1,.02,.15,.02,.19,0,.38-.08,.52-.21,.17-.17,.25-.43,.2-.67l-2.49-11.84c1.66-3.27,2.5-6.8,2.5-10.48,0-12.8-10.41-23.21-23.21-23.21-2.11,0-4.16,.29-6.11,.82V1.47H50.81V12.46c0,.4,.33,.73,.73,.73h10.99V62.53H17.1Z"></path><path class="cls-3" d="M1.31,48.81c-.25-.32-.71-.38-1.03-.13-.32,.25-.38,.71-.13,1.03,.47,.61,.98,1.22,1.5,1.79,.14,.16,.34,.24,.54,.24,.18,0,.35-.06,.49-.19,.3-.27,.32-.74,.05-1.03-.49-.55-.97-1.12-1.42-1.7Z"></path><path class="cls-3" d="M12.11,57.28c-2.39-1.05-4.62-2.44-6.62-4.12-.31-.26-.77-.22-1.03,.09-.26,.31-.22,.77,.09,1.03,2.11,1.77,4.46,3.23,6.98,4.34,.09,.04,.2,.06,.29,.06,.28,0,.55-.16,.67-.44,.16-.37,0-.8-.38-.97Z"></path><path class="cls-3" d="M49.35,19.3c0-.41-.33-.73-.73-.73h-3.37c-.4,0-.73,.33-.73,.73s.33,.73,.73,.73h3.37c.41,0,.73-.33,.73-.73Z"></path><path class="cls-3" d="M57.41,18.57h-4.88c-.4,0-.73,.33-.73,.73s.33,.73,.73,.73h4.88c.41,0,.73-.33,.73-.73s-.33-.73-.73-.73Z"></path><path class="cls-3" d="M57.41,24.43h-9.92c-.4,0-.73,.33-.73,.73s.33,.73,.73,.73h9.92c.41,0,.73-.33,.73-.73s-.33-.73-.73-.73Z"></path><path class="cls-3" d="M48.58,31.76h5.89c.4,0,.73-.33,.73-.73s-.33-.73-.73-.73h-5.89c-.4,0-.73,.33-.73,.73s.33,.73,.73,.73Z"></path><path class="cls-3" d="M48.58,37.62h1.98c.41,0,.73-.33,.73-.73s-.33-.73-.73-.73h-1.98c-.4,0-.73,.33-.73,.73s.33,.73,.73,.73Z"></path><path class="cls-3" d="M57.41,36.15h-2.93c-.41,0-.73,.33-.73,.73s.33,.73,.73,.73h2.93c.41,0,.73-.33,.73-.73s-.33-.73-.73-.73Z"></path><path class="cls-3" d="M54.47,43.48c.4,0,.73-.33,.73-.73s-.33-.73-.73-.73h-7.27c-.4,0-.73,.33-.73,.73s.33,.73,.73,.73h7.27Z"></path><path class="cls-3" d="M57.41,47.88h-9.92c-.4,0-.73,.33-.73,.73s.33,.73,.73,.73h9.92c.41,0,.73-.33,.73-.73s-.33-.73-.73-.73Z"></path><path class="cls-3" d="M57.41,53.74h-8.67c-.4,0-.73,.33-.73,.73s.33,.73,.73,.73h8.67c.41,0,.73-.33,.73-.73s-.33-.73-.73-.73Z"></path></g></svg>