<svg xmlns="http://www.w3.org/2000/svg" id="Layer_1" viewBox="0 0 64 64"><defs><style>.cls-1{fill:#ea5520;}.cls-2{fill:#fbba10;}.cls-3{fill:#7cb928;}.cls-4{fill:#1b181c;}.cls-5{fill:#58c0ee;}.cls-6{fill:#389bd7;}</style></defs><path class="cls-5" d="M.73,55.45c0-4.32,3.5-7.82,7.82-7.82V.73C4.23,.73,.73,4.23,.73,8.55V55.45Z"></path><g><path class="cls-2" d="M36.2,9.46c-8.42,0-15.25,6.83-15.25,15.25s6.83,15.25,15.25,15.25,15.25-6.83,15.25-15.25-6.83-15.25-15.25-15.25Zm-8.89,6.61c.77-.79,1.64-1.47,2.58-2.03,.35-.21,.8-.09,1,.26,.21,.35,.09,.8-.26,1-.83,.49-1.6,1.1-2.28,1.79-.14,.15-.34,.22-.53,.22s-.37-.07-.51-.21c-.29-.28-.3-.75-.01-1.04Zm5.6,14.95h-3.42c-1.89,0-3.42-1.53-3.42-3.42s1.53-3.42,3.42-3.42,3.42,1.53,3.42,3.42v3.42Zm10.26,0h-3.42v-3.42c0-1.89,1.53-3.42,3.42-3.42s3.42,1.53,3.42,3.42-1.53,3.42-3.42,3.42Zm4.19-9.79c-.08,.03-.17,.05-.26,.05-.29,0-.57-.18-.68-.47-1.61-4.2-5.71-7.03-10.21-7.03-.59,0-1.18,.05-1.76,.14-.4,.07-.78-.21-.84-.61-.07-.4,.21-.78,.61-.84,.66-.11,1.33-.16,2-.16,5.1,0,9.76,3.2,11.58,7.97,.15,.38-.04,.8-.42,.95Z"></path><path class="cls-1" d="M29.49,24.18c-1.89,0-3.42,1.53-3.42,3.42s1.53,3.42,3.42,3.42h3.42v-3.42c0-1.89-1.53-3.42-3.42-3.42Z"></path><path class="cls-1" d="M43.17,24.18c-1.89,0-3.42,1.53-3.42,3.42v3.42h3.42c1.89,0,3.42-1.53,3.42-3.42s-1.53-3.42-3.42-3.42Z"></path><path class="cls-6" d="M27.4,58.38v1.16c0,2.06,1.67,3.72,3.72,3.72h10.14c2.06,0,3.72-1.67,3.72-3.72v-1.16H27.4Z"></path><rect class="cls-3" x="25.45" y="48.61" width="21.5" height="9.77"></rect></g><g><path class="cls-4" d="M63.27,7.82h-14.96c-3.83-2.76-8.44-4.14-13.25-3.88-4.06,.22-7.81,1.63-10.94,3.88H9.28V.73c0-.41-.33-.73-.73-.73C3.84,0,0,3.83,0,8.55V55.45c0,4.71,3.84,8.55,8.55,8.55H25.45c.41,0,.73-.33,.73-.73s-.33-.73-.73-.73H8.55c-3.91,0-7.08-3.18-7.08-7.08s3.18-7.08,7.08-7.08c.4,0,.73-.33,.73-.73V9.28h13.04c-4.08,3.68-6.73,8.93-6.92,14.75-.19,5.88,2.14,11.6,6.39,15.67,2,1.92,3.15,4.69,3.15,7.6v.58h-.97c-.4,0-.73,.33-.73,.73s.33,.73,.73,.73h.73v3.42h-.73c-.4,0-.73,.33-.73,.73s.33,.73,.73,.73h.73v3.42h-.73c-.4,0-.73,.33-.73,.73s.33,.73,.73,.73h24.43c.4,0,.73-.33,.73-.73s-.33-.73-.73-.73h-.73v-3.42h.73c.4,0,.73-.33,.73-.73s-.33-.73-.73-.73h-.73v-3.42h.73c.4,0,.73-.33,.73-.73s-.33-.73-.73-.73h-.97v-.8c0-2.77,1.17-5.44,3.3-7.51,4.04-3.94,6.26-9.22,6.26-14.85s-2.31-11.13-6.49-15.1c-.12-.12-.26-.22-.38-.33h12.41V62.53h-15.59c-.4,0-.73,.33-.73,.73s.33,.73,.73,.73h16.32c.4,0,.73-.33,.73-.73V8.55c0-.4-.33-.73-.73-.73ZM7.82,46.93c-2.64,.22-4.94,1.65-6.35,3.74V8.55C1.47,4.89,4.25,1.87,7.82,1.5V46.93Zm24.36-16.64h-2.69c-1.48,0-2.69-1.21-2.69-2.69s1.21-2.69,2.69-2.69,2.69,1.21,2.69,2.69v2.69Zm6.84,17.59h-5.37V31.76h5.37v16.12Zm7.2,1.47v3.42H26.18v-3.42h20.03Zm-20.03,8.31v-3.42h20.03v3.42H26.18ZM55.54,24.71c0,5.24-2.07,10.14-5.82,13.8-2.41,2.35-3.74,5.39-3.74,8.56v.8h-5.5V31.76h2.69c2.29,0,4.15-1.86,4.15-4.15s-1.86-4.15-4.15-4.15-4.15,1.86-4.15,4.15v2.69h-5.37v-2.69c0-2.29-1.86-4.15-4.15-4.15s-4.15,1.86-4.15,4.15,1.86,4.15,4.15,4.15h2.69v16.12h-5.76v-.58c0-3.3-1.31-6.46-3.61-8.65-3.95-3.79-6.12-9.1-5.94-14.57,.32-9.94,8.34-18.14,18.27-18.67,5.38-.28,10.47,1.58,14.36,5.27,3.89,3.69,6.04,8.68,6.04,14.04Zm-15.06,5.58v-2.69c0-1.48,1.21-2.69,2.69-2.69s2.69,1.21,2.69,2.69-1.21,2.69-2.69,2.69h-2.69Z"></path><path class="cls-4" d="M16.37,1.47h17.59c.4,0,.73-.33,.73-.73s-.33-.73-.73-.73H16.37c-.4,0-.73,.33-.73,.73s.33,.73,.73,.73Z"></path><path class="cls-4" d="M39.82,1.47h4.88c.4,0,.73-.33,.73-.73s-.33-.73-.73-.73h-4.88c-.4,0-.73,.33-.73,.73s.33,.73,.73,.73Z"></path></g></svg>