<?xml version="1.0" encoding="utf-8"?>
<!-- Generator: Adobe Illustrator 28.0.0, SVG Export Plug-In . SVG Version: 6.00 Build 0)  -->
<svg version="1.1" id="Layer_2_00000097499026347297903970000009500915934682304419_"
	 xmlns="http://www.w3.org/2000/svg" xmlns:xlink="http://www.w3.org/1999/xlink" x="0px" y="0px" viewBox="0 0 52 196.6"
	 style="enable-background:new 0 0 52 196.6;" xml:space="preserve">
<style type="text/css">
	.st0{opacity:0.5;}
	.st1{clip-path:url(#SVGID_00000029758621377072210540000005037378719907681983_);}
	.st2{fill:#CFD2D3;}
</style>
<g id="Layer_1-2">
	<g class="st0">
		<g>
			<defs>
				<rect id="SVGID_1_" width="50.8" height="195.2"/>
			</defs>
			<clipPath id="SVGID_00000052824388891575954630000012657241899614361791_">
				<use xlink:href="#SVGID_1_"  style="overflow:visible;"/>
			</clipPath>
			<g style="clip-path:url(#SVGID_00000052824388891575954630000012657241899614361791_);">
				<path class="st2" d="M25.5,121.8c13.4,0,24.2,10.9,24.2,24.2s-10.9,24.2-24.2,24.2V121.8z"/>
				<path class="st2" d="M49.8,97.6c0,13.4-10.9,24.2-24.2,24.2S1.3,110.9,1.3,97.6H49.8z"/>
				<path class="st2" d="M49.8,73.3c0,13.4-10.9,24.2-24.2,24.2S1.3,86.7,1.3,73.3H49.8z"/>
				<path class="st2" d="M0.2,182.6c0-7,5.7-12.6,12.6-12.6s12.6,5.6,12.6,12.6s-5.7,12.6-12.6,12.6S0.2,189.5,0.2,182.6"/>
				<path class="st2" d="M2.5,133.1c0-5.7,4.7-10.4,10.4-10.4s10.4,4.7,10.4,10.4s-4.7,10.4-10.4,10.4S2.5,138.9,2.5,133.1"/>
				<path class="st2" d="M27.9,60.1c0-5.7,4.6-10.4,10.4-10.4s10.4,4.7,10.4,10.4S44,70.4,38.2,70.4S27.9,65.8,27.9,60.1"/>
				<path class="st2" d="M25.5,195.2c13.7,0,24.9-11.1,24.9-24.9H25.5V195.2z"/>
				<path class="st2" d="M25.5,169.9c0-14.1-11.4-25.5-25.5-25.5v25.5H25.5z"/>
				<path class="st2" d="M25.5,0.6C12.1,0.6,1.2,11.4,1.2,24.8s10.9,24.2,24.2,24.2C25.5,49.1,25.5,0.6,25.5,0.6z"/>
				<path class="st2" d="M50.8,12.6c0-7-5.7-12.6-12.6-12.6S25.5,5.7,25.5,12.6s5.7,12.6,12.6,12.6S50.8,19.6,50.8,12.6"/>
				<path class="st2" d="M25.5,73.3c-13.4,0-24.3-10.9-24.3-24.2h24.2C25.5,49.1,25.5,73.3,25.5,73.3z"/>
				<path class="st2" d="M49.8,49.6c-13.5,0-24.4-10.9-24.4-24.4h24.4V49.6z"/>
			</g>
		</g>
	</g>
</g>
</svg>
