<?xml version="1.0" encoding="utf-8"?>
<!-- Generator: Adobe Illustrator 26.0.1, SVG Export Plug-In . SVG Version: 6.00 Build 0)  -->
<svg version="1.1" id="Layer_1" xmlns="http://www.w3.org/2000/svg" xmlns:xlink="http://www.w3.org/1999/xlink" x="0px" y="0px"
	 viewBox="0 0 708.66 708.66" style="enable-background:new 0 0 708.66 708.66;" xml:space="preserve">
<style type="text/css">
	.st0{fill:url(#SVGID_1_);}
	.st1{fill:url(#SVGID_00000005224246290643894950000016970322985390394543_);}
	.st2{fill:#00A19B;}
	.st3{fill:#211261;}
	.st4{fill:#3CB4E5;}
	.st5{fill:#FFFFFF;}
	.st6{fill:#292562;}
</style>
<g>
	<g>
		<path class="st3" d="M210.7,559.06h-4.6v-18.54c0-6.6-2.93-9.9-8.78-9.9c-1.58,0-3.21,0.41-4.88,1.22s-2.91,1.8-3.69,2.96v24.26
			h-4.67v-42.52l4.67-2.44v16.66c2.88-2.79,6.23-4.18,10.04-4.18c7.95,0,11.92,4.53,11.92,13.59V559.06z"/>
		<path class="st3" d="M246.95,544.84h-22.59c0.19,3.39,1.36,6.11,3.52,8.16s4.96,3.07,8.4,3.07c2.88,0,5.69-0.86,8.43-2.58
			l1.6,2.79c-3.07,2.42-6.76,3.62-11.08,3.62c-5.02,0-9.02-1.65-11.99-4.95c-2.74-2.97-4.11-6.83-4.11-11.57
			c0-4.93,1.46-9.04,4.39-12.34c2.65-2.97,5.92-4.46,9.83-4.46c4.69,0,8.27,1.91,10.74,5.72c1.91,2.97,2.86,6.65,2.86,11.01V544.84z
			 M224.3,541.08h17.85c-0.14-3.39-0.96-6.04-2.47-7.95c-1.51-1.91-3.59-2.86-6.24-2.86c-2.51,0-4.61,1-6.31,3
			C225.42,535.27,224.48,537.87,224.3,541.08z"/>
		<path class="st3" d="M278.95,559.06h-3.49l-0.7-3.42c-2.84,2.84-6.37,4.25-10.6,4.25c-3.21,0-5.76-0.89-7.67-2.68
			c-1.91-1.79-2.86-4.17-2.86-7.15c0-7.25,5.3-10.87,15.89-10.87h4.81v-0.42c0-5.53-2.7-8.29-8.09-8.29c-3.07,0-6.02,1.02-8.85,3.07
			l-1.53-2.58c3.21-2.93,7.11-4.39,11.71-4.39c3.67,0,6.48,1.14,8.44,3.42c1.95,2.28,2.93,5.55,2.93,9.83V559.06z M274.35,542.61
			h-4.25c-7.62,0-11.43,2.35-11.43,7.04c0,2,0.59,3.57,1.78,4.71c1.19,1.14,2.85,1.71,4.98,1.71c1.86,0,3.65-0.46,5.37-1.39
			c1.72-0.93,2.9-2.09,3.56-3.49V542.61z"/>
		<path class="st3" d="M294.36,514.1v44.96h-4.67v-42.45L294.36,514.1z"/>
		<path class="st3" d="M304.88,517.1c0-0.79,0.3-1.49,0.91-2.09c0.6-0.6,1.32-0.91,2.16-0.91s1.56,0.3,2.16,0.91
			c0.6,0.6,0.91,1.3,0.91,2.09c0,0.88-0.3,1.62-0.91,2.2c-0.6,0.58-1.32,0.87-2.16,0.87c-0.88,0-1.62-0.29-2.2-0.87
			C305.17,518.71,304.88,517.98,304.88,517.1z M310.18,527.41v31.65h-4.6v-31.65H310.18z"/>
		<path class="st3" d="M348.03,559.06h-4.6v-18.54c0-6.6-2.88-9.9-8.64-9.9c-1.67,0-3.32,0.4-4.95,1.19c-1.63,0.79-2.88,1.79-3.76,3
			v24.26h-4.67v-31.65h3.9l0.42,3.35h0.21c2.74-2.79,6.18-4.18,10.32-4.18c7.85,0,11.78,4.53,11.78,13.59V559.06z"/>
		<path class="st3" d="M380.87,530.62l0.7-3.21h3.62v29.07c0,10.6-4.62,15.89-13.87,15.89c-4.37,0-8.23-1.46-11.57-4.39l1.6-2.58
			c2.88,2,5.95,3,9.2,3c3.44,0,5.97-0.95,7.6-2.86c1.63-1.91,2.44-4.93,2.44-9.06v-0.63c-2.28,2.7-5.39,4.04-9.34,4.04
			c-4.6,0-8.25-1.72-10.94-5.16c-2.33-2.97-3.49-6.67-3.49-11.08c0-5.58,1.63-9.94,4.88-13.11c2.7-2.65,6.02-3.97,9.97-3.97
			c1.77,0,3.52,0.38,5.26,1.15C378.67,528.49,379.98,529.46,380.87,530.62z M380.59,550.63V535.5c-0.6-1.44-1.7-2.66-3.28-3.66
			s-3.25-1.5-5.02-1.5c-3.07,0-5.58,1.2-7.53,3.59c-1.95,2.39-2.93,5.47-2.93,9.24c0,4.28,1.07,7.6,3.21,9.97
			c1.86,1.95,4.18,2.93,6.97,2.93c1.86,0,3.57-0.5,5.12-1.5C378.69,553.57,379.84,552.25,380.59,550.63z"/>
		<path class="st3" d="M417.46,514.1v44.96h-4.67v-42.45L417.46,514.1z"/>
		<path class="st3" d="M427.99,517.1c0-0.79,0.3-1.49,0.91-2.09c0.6-0.6,1.32-0.91,2.16-0.91s1.56,0.3,2.16,0.91
			c0.6,0.6,0.91,1.3,0.91,2.09c0,0.88-0.3,1.62-0.91,2.2c-0.6,0.58-1.32,0.87-2.16,0.87c-0.88,0-1.62-0.29-2.2-0.87
			C428.28,518.71,427.99,517.98,427.99,517.1z M433.29,527.41v31.65h-4.6v-31.65H433.29z"/>
		<path class="st3" d="M456.78,559.06h-4.74l-11.92-31.65h5.02l9.34,26.14l9.27-26.14h5.02L456.78,559.06z"/>
		<path class="st3" d="M500.28,544.84h-22.59c0.19,3.39,1.36,6.11,3.52,8.16s4.96,3.07,8.4,3.07c2.88,0,5.69-0.86,8.43-2.58
			l1.6,2.79c-3.07,2.42-6.76,3.62-11.08,3.62c-5.02,0-9.02-1.65-11.99-4.95c-2.74-2.97-4.11-6.83-4.11-11.57
			c0-4.93,1.46-9.04,4.39-12.34c2.65-2.97,5.92-4.46,9.83-4.46c4.69,0,8.27,1.91,10.74,5.72c1.91,2.97,2.86,6.65,2.86,11.01V544.84z
			 M477.62,541.08h17.85c-0.14-3.39-0.96-6.04-2.47-7.95c-1.51-1.91-3.59-2.86-6.24-2.86c-2.51,0-4.61,1-6.31,3
			C478.75,535.27,477.81,537.87,477.62,541.08z"/>
		<path class="st3" d="M525.65,532.15c-2.32-1.21-4.86-1.81-7.6-1.81c-1.86,0-3.31,0.41-4.36,1.22c-1.05,0.81-1.57,1.92-1.57,3.31
			c0,1.49,0.48,2.64,1.43,3.45c0.95,0.81,2.78,1.62,5.47,2.41c3.81,1.16,6.46,2.46,7.95,3.9c1.49,1.44,2.23,3.46,2.23,6.07
			c0,2.74-1.04,4.96-3.1,6.66c-2.07,1.7-4.73,2.54-7.98,2.54c-4.28,0-7.99-1.16-11.15-3.49c0.14-0.23,0.37-0.63,0.7-1.18
			c0.33-0.6,0.6-1.07,0.84-1.39c2.69,1.49,5.6,2.23,8.71,2.23c4.88,0,7.32-1.83,7.32-5.51c0-1.49-0.52-2.65-1.57-3.49
			s-2.99-1.63-5.82-2.37c-6.6-1.86-9.9-5.09-9.9-9.69c0-2.46,0.96-4.48,2.89-6.06c1.93-1.58,4.4-2.37,7.42-2.37
			c3.58,0,6.78,1,9.62,3L525.65,532.15z"/>
		<path class="st3" d="M192.76,603.7h-1.86l-0.37-1.83c-1.52,1.52-3.4,2.27-5.67,2.27c-1.71,0-3.08-0.48-4.1-1.43
			s-1.53-2.23-1.53-3.82c0-3.88,2.83-5.81,8.5-5.81h2.57v-0.22c0-2.96-1.44-4.44-4.32-4.44c-1.64,0-3.22,0.55-4.73,1.64l-0.82-1.38
			c1.71-1.57,3.8-2.35,6.26-2.35c1.96,0,3.47,0.61,4.51,1.83c1.04,1.22,1.57,2.97,1.57,5.25V603.7z M190.3,594.91h-2.27
			c-4.08,0-6.11,1.25-6.11,3.76c0,1.07,0.32,1.91,0.95,2.52c0.63,0.61,1.52,0.91,2.66,0.91c0.99,0,1.95-0.25,2.87-0.75
			c0.92-0.5,1.55-1.12,1.9-1.86V594.91z"/>
		<path class="st3" d="M210.12,586.78v19.38c0,1.47-0.37,2.61-1.1,3.43c-0.73,0.82-1.75,1.23-3.04,1.23c-1.37,0-2.65-0.43-3.84-1.3
			l0.89-1.38c0.77,0.45,1.58,0.67,2.42,0.67c1.47,0,2.2-0.92,2.2-2.76v-19.27H210.12z M207.22,581.27c0-0.42,0.16-0.79,0.48-1.12
			c0.32-0.32,0.71-0.48,1.16-0.48s0.83,0.16,1.16,0.48c0.32,0.32,0.48,0.7,0.48,1.12c0,0.47-0.16,0.86-0.48,1.17
			c-0.32,0.31-0.71,0.47-1.16,0.47c-0.47,0-0.86-0.15-1.17-0.47C207.37,582.13,207.22,581.74,207.22,581.27z"/>
		<path class="st3" d="M231.36,595.28c0,2.68-0.84,4.88-2.53,6.6c-1.52,1.52-3.38,2.27-5.59,2.27c-2.56,0-4.62-0.97-6.19-2.91
			c-1.32-1.64-1.97-3.63-1.97-5.96c0-2.73,0.82-4.94,2.46-6.63c1.49-1.54,3.39-2.31,5.7-2.31c2.61,0,4.68,0.98,6.22,2.94
			C230.73,590.92,231.36,592.92,231.36,595.28z M217.76,595.28c0,2.16,0.56,3.88,1.68,5.14c0.99,1.12,2.25,1.68,3.76,1.68
			c1.64,0,2.96-0.63,3.97-1.88c1.01-1.25,1.51-2.9,1.51-4.94c0-2.14-0.55-3.85-1.64-5.14c-0.99-1.19-2.26-1.79-3.8-1.79
			c-1.64,0-2.96,0.64-3.97,1.92C218.27,591.55,217.76,593.22,217.76,595.28z"/>
		<path class="st3" d="M249.7,586.78v16.92h-1.94l-0.22-1.94l-0.11,0.04c-1.52,1.57-3.35,2.35-5.52,2.35
			c-1.81,0-3.24-0.64-4.29-1.92c-1.04-1.28-1.56-3.05-1.56-5.31v-10.14h2.5v9.69c0,3.65,1.37,5.48,4.1,5.48
			c0.84,0,1.7-0.21,2.55-0.63c0.86-0.42,1.53-0.97,2.03-1.64v-12.89H249.7z"/>
		<path class="st3" d="M266.55,588.24l-2.05,1.42c-0.84-0.75-1.75-1.12-2.72-1.12c-1.42,0-2.67,0.73-3.76,2.2v12.97h-2.5v-16.92
			h2.12l0.22,1.79h0.07c1.47-1.49,2.97-2.24,4.51-2.24C264.26,586.33,265.63,586.97,266.55,588.24z"/>
		<path class="st3" d="M283.99,603.7h-2.46v-9.91c0-3.53-1.54-5.29-4.62-5.29c-0.89,0-1.78,0.21-2.65,0.63
			c-0.87,0.42-1.54,0.96-2.01,1.6v12.97h-2.5v-16.92h2.09l0.22,1.79h0.11c1.47-1.49,3.3-2.24,5.52-2.24c4.2,0,6.3,2.42,6.3,7.27
			V603.7z"/>
		<path class="st3" d="M303.37,596.1h-12.08c0.1,1.81,0.73,3.27,1.88,4.36c1.16,1.09,2.65,1.64,4.49,1.64
			c1.54,0,3.04-0.46,4.51-1.38l0.86,1.49c-1.64,1.29-3.62,1.94-5.93,1.94c-2.68,0-4.82-0.88-6.41-2.65c-1.47-1.59-2.2-3.65-2.2-6.19
			c0-2.63,0.78-4.83,2.35-6.6c1.42-1.59,3.17-2.39,5.25-2.39c2.51,0,4.42,1.02,5.74,3.06c1.02,1.59,1.53,3.55,1.53,5.89V596.1z
			 M291.25,594.09h9.54c-0.07-1.81-0.52-3.23-1.32-4.25c-0.81-1.02-1.92-1.53-3.34-1.53c-1.34,0-2.47,0.53-3.37,1.6
			S291.35,592.37,291.25,594.09z"/>
		<path class="st3" d="M321.63,586.78l-7.38,19.49c-1.12,3.03-2.66,4.55-4.62,4.55c-1.24,0-2.48-0.45-3.73-1.34l0.82-1.34
			c0.84,0.45,1.59,0.67,2.24,0.67c1.24,0,2.32-1.16,3.24-3.47l0.67-1.64h-0.63l-6.52-16.92h2.65l5.37,14.35l5.22-14.35H321.63z"/>
		<path class="st3" d="M349.2,595.28c0,2.68-0.84,4.88-2.53,6.6c-1.52,1.52-3.38,2.27-5.59,2.27c-2.56,0-4.62-0.97-6.19-2.91
			c-1.32-1.64-1.97-3.63-1.97-5.96c0-2.73,0.82-4.94,2.46-6.63c1.49-1.54,3.39-2.31,5.7-2.31c2.61,0,4.68,0.98,6.22,2.94
			C348.57,590.92,349.2,592.92,349.2,595.28z M335.6,595.28c0,2.16,0.56,3.88,1.68,5.14c0.99,1.12,2.25,1.68,3.76,1.68
			c1.64,0,2.96-0.63,3.97-1.88c1.01-1.25,1.51-2.9,1.51-4.94c0-2.14-0.55-3.85-1.64-5.14c-0.99-1.19-2.26-1.79-3.8-1.79
			c-1.64,0-2.96,0.64-3.97,1.92C336.1,591.55,335.6,593.22,335.6,595.28z"/>
		<path class="st3" d="M352.56,586.78h2.42v-2.46c0-1.47,0.36-2.61,1.08-3.43c0.72-0.82,1.74-1.23,3.06-1.23
			c1.34,0,2.62,0.42,3.84,1.27l-0.89,1.38c-0.82-0.42-1.63-0.63-2.42-0.63c-1.47,0-2.2,0.92-2.2,2.76v2.35h4.25v2.01h-4.25v14.91
			h-2.46v-14.91h-2.42V586.78z"/>
		<path class="st3" d="M389.12,596.1h-12.08c0.1,1.81,0.73,3.27,1.88,4.36c1.16,1.09,2.65,1.64,4.49,1.64
			c1.54,0,3.04-0.46,4.51-1.38l0.86,1.49c-1.64,1.29-3.62,1.94-5.93,1.94c-2.68,0-4.82-0.88-6.41-2.65c-1.47-1.59-2.2-3.65-2.2-6.19
			c0-2.63,0.78-4.83,2.35-6.6c1.42-1.59,3.17-2.39,5.25-2.39c2.51,0,4.42,1.02,5.74,3.06c1.02,1.59,1.53,3.55,1.53,5.89V596.1z
			 M377.01,594.09h9.54c-0.07-1.81-0.52-3.23-1.32-4.25c-0.81-1.02-1.92-1.53-3.34-1.53c-1.34,0-2.47,0.53-3.37,1.6
			S377.1,592.37,377.01,594.09z"/>
		<path class="st3" d="M406.07,586.78l-5.63,8.09l5.89,8.83h-2.76l-4.62-7.01l-4.77,7.01h-2.79l6.15-8.72l-5.25-8.2h2.76l3.95,6.3
			l4.32-6.3H406.07z"/>
		<path class="st3" d="M422.51,588.12l-0.82,1.42c-1.27-0.79-2.65-1.19-4.14-1.19c-2.04,0-3.63,0.75-4.77,2.24
			c-0.99,1.29-1.49,2.91-1.49,4.84c0,2.06,0.63,3.71,1.9,4.96c1.17,1.14,2.7,1.71,4.58,1.71c1.59,0,2.99-0.46,4.21-1.38l0.82,1.49
			c-1.39,1.29-3.26,1.94-5.59,1.94c-2.73,0-4.91-0.92-6.52-2.76c-1.39-1.62-2.09-3.64-2.09-6.08c0-2.73,0.91-4.97,2.72-6.71
			c1.56-1.51,3.45-2.27,5.66-2.27C419.15,586.33,420.99,586.93,422.51,588.12z"/>
		<path class="st3" d="M441.03,596.1h-12.08c0.1,1.81,0.73,3.27,1.88,4.36c1.16,1.09,2.65,1.64,4.49,1.64
			c1.54,0,3.04-0.46,4.51-1.38l0.86,1.49c-1.64,1.29-3.62,1.94-5.93,1.94c-2.68,0-4.82-0.88-6.41-2.65c-1.47-1.59-2.2-3.65-2.2-6.19
			c0-2.63,0.78-4.83,2.35-6.6c1.42-1.59,3.17-2.39,5.25-2.39c2.51,0,4.42,1.02,5.74,3.06c1.02,1.59,1.53,3.55,1.53,5.89V596.1z
			 M428.92,594.09h9.54c-0.07-1.81-0.52-3.23-1.32-4.25c-0.81-1.02-1.92-1.53-3.34-1.53c-1.34,0-2.47,0.53-3.37,1.6
			S429.02,592.37,428.92,594.09z"/>
		<path class="st3" d="M448.22,579.66v24.04h-2.5v-22.7L448.22,579.66z"/>
		<path class="st3" d="M456.53,579.66v24.04h-2.5v-22.7L456.53,579.66z"/>
		<path class="st3" d="M476.1,596.1h-12.08c0.1,1.81,0.73,3.27,1.88,4.36c1.16,1.09,2.65,1.64,4.49,1.64c1.54,0,3.04-0.46,4.51-1.38
			l0.86,1.49c-1.64,1.29-3.62,1.94-5.93,1.94c-2.68,0-4.82-0.88-6.41-2.65c-1.47-1.59-2.2-3.65-2.2-6.19c0-2.63,0.78-4.83,2.35-6.6
			c1.42-1.59,3.17-2.39,5.25-2.39c2.51,0,4.42,1.02,5.74,3.06c1.02,1.59,1.53,3.55,1.53,5.89V596.1z M463.99,594.09h9.54
			c-0.07-1.81-0.52-3.23-1.32-4.25c-0.81-1.02-1.92-1.53-3.34-1.53c-1.34,0-2.47,0.53-3.37,1.6S464.09,592.37,463.99,594.09z"/>
		<path class="st3" d="M495.03,603.7h-2.46v-9.91c0-3.53-1.54-5.29-4.62-5.29c-0.89,0-1.78,0.21-2.65,0.63
			c-0.87,0.42-1.54,0.96-2.01,1.6v12.97h-2.5v-16.92h2.09l0.22,1.79h0.11c1.47-1.49,3.3-2.24,5.52-2.24c4.2,0,6.3,2.42,6.3,7.27
			V603.7z"/>
		<path class="st3" d="M513.44,588.12l-0.82,1.42c-1.27-0.79-2.65-1.19-4.14-1.19c-2.04,0-3.63,0.75-4.77,2.24
			c-0.99,1.29-1.49,2.91-1.49,4.84c0,2.06,0.63,3.71,1.9,4.96c1.17,1.14,2.7,1.71,4.58,1.71c1.59,0,2.99-0.46,4.21-1.38l0.82,1.49
			c-1.39,1.29-3.26,1.94-5.59,1.94c-2.73,0-4.91-0.92-6.52-2.76c-1.39-1.62-2.09-3.64-2.09-6.08c0-2.73,0.91-4.97,2.72-6.71
			c1.56-1.51,3.45-2.27,5.66-2.27C510.09,586.33,511.92,586.93,513.44,588.12z"/>
		<path class="st3" d="M531.96,596.1h-12.08c0.1,1.81,0.73,3.27,1.88,4.36c1.16,1.09,2.65,1.64,4.49,1.64
			c1.54,0,3.04-0.46,4.51-1.38l0.86,1.49c-1.64,1.29-3.62,1.94-5.93,1.94c-2.68,0-4.82-0.88-6.41-2.65c-1.47-1.59-2.2-3.65-2.2-6.19
			c0-2.63,0.78-4.83,2.35-6.6c1.42-1.59,3.17-2.39,5.25-2.39c2.51,0,4.42,1.02,5.74,3.06c1.02,1.59,1.53,3.55,1.53,5.89V596.1z
			 M519.85,594.09h9.54c-0.07-1.81-0.52-3.23-1.32-4.25c-0.81-1.02-1.92-1.53-3.34-1.53c-1.34,0-2.47,0.53-3.37,1.6
			S519.95,592.37,519.85,594.09z"/>
	</g>
	<g>
		<path class="st2" d="M413.55,234.14c-30.01,0-57.62,10.23-79.56,27.38c7.18,6.42,13.15,14.34,18.1,22.42
			c9.18,15.01,15.68,31.78,19.79,48.86c1.76,7.3,3.09,14.73,3.66,22.22c0.83,10.88,1.6,21.79,1.05,32.71
			c-0.52,10.41-2.19,21.09-6.94,30.48c-4.61,9.09-11.58,17.13-18.88,24.16c-6.97,6.71-14.68,12.7-22.92,17.79
			c22.81,20.22,52.82,32.51,85.7,32.51c71.39,0,129.26-57.87,129.26-129.26S484.93,234.14,413.55,234.14z"/>
		<g>
			<path class="st6" d="M334.63,430.23c-18.1,18.13-42.18,28.11-67.79,28.11c-17.3,0-34.25-4.66-49.01-13.46
				c-8.14-4.86-18.68-2.19-23.54,5.95c-4.86,8.14-2.2,18.68,5.95,23.54c20.08,11.98,43.11,18.31,66.6,18.31
				c34.8,0,67.5-13.56,92.09-38.18c15.76-15.79,26.97-34.91,32.97-55.77H355.6C350.85,410.36,343.78,421.06,334.63,430.23z"/>
			<path class="st3" d="M358.82,270.31c-24.52-24.45-57.18-37.91-91.98-37.91c-0.05,0-0.1,0-0.14,0
				c-16.03,0.02-31.62,2.91-46.24,8.49l14.53-70.99H335.6c9.48,0,17.16-7.69,17.16-17.16c0-9.48-7.68-17.16-17.16-17.16H206.96
				l-21.89,106.95l-4.55,24.27c-1.43,7.63,1.89,15.22,8.47,19.34c6.57,4.12,14.84,3.81,21.08-0.78
				c16.5-12.16,36.09-18.6,56.66-18.62c0.04,0,0.07,0,0.1,0c46.19,0,84.87,32.87,93.85,76.47h34.88
				C391.51,315.63,378.81,290.25,358.82,270.31z"/>
			<path class="st2" d="M411.45,343.19h-15.89c0.92,6.28,1.4,12.68,1.41,19.15c0.02,12.49-1.72,24.7-5.08,36.38h19.56V343.19z"/>
			<path class="st2" d="M395.56,343.19h-34.88c1.28,6.2,1.95,12.62,1.96,19.2c0.02,12.66-2.41,24.95-7.04,36.33h36.29
				c3.36-11.67,5.1-23.89,5.08-36.38C396.96,355.87,396.48,349.47,395.56,343.19z"/>
		</g>
		<circle class="st2" cx="209.04" cy="459.62" r="17.55"/>
		<path class="st2" d="M270.07,135.55c9.49,0,17.18,7.69,17.18,17.18c0,9.49-7.69,17.18-17.18,17.18L270.07,135.55z"/>
		<path class="st4" d="M284.28,170.01c0-19.02,15.42-34.45,34.45-34.45v34.45H284.28z"/>
		<path class="st4" d="M270.08,135.56c0,19.02-15.42,34.45-34.45,34.45v-34.45H270.08z"/>
		<circle class="st2" cx="335.9" cy="152.73" r="17.17"/>
		<g>
			<path class="st5" d="M433.3,315.17l-9.15,24.18c-1.39,3.76-3.3,5.64-5.73,5.64c-1.54,0-3.08-0.55-4.62-1.66l1.02-1.66
				c1.05,0.55,1.97,0.83,2.77,0.83c1.54,0,2.88-1.43,4.02-4.3l0.83-2.03h-0.79l-8.09-20.99h3.28l6.66,17.8l6.47-17.8H433.3z"/>
			<path class="st5" d="M454.19,326.73h-14.98c0.12,2.25,0.9,4.05,2.33,5.41c1.43,1.36,3.29,2.03,5.57,2.03
				c1.91,0,3.78-0.57,5.59-1.71l1.06,1.85c-2.03,1.6-4.48,2.4-7.35,2.4c-3.33,0-5.98-1.09-7.95-3.28c-1.82-1.97-2.73-4.53-2.73-7.67
				c0-3.27,0.97-5.99,2.91-8.18c1.76-1.97,3.93-2.96,6.52-2.96c3.11,0,5.49,1.26,7.12,3.79c1.26,1.97,1.9,4.41,1.9,7.3V326.73z
				 M439.17,324.23H451c-0.09-2.25-0.64-4.01-1.64-5.27c-1-1.26-2.38-1.9-4.14-1.9c-1.66,0-3.06,0.66-4.18,1.99
				C439.91,320.38,439.29,322.11,439.17,324.23z"/>
			<path class="st5" d="M475.41,336.16h-2.31l-0.46-2.27c-1.88,1.88-4.22,2.82-7.03,2.82c-2.13,0-3.82-0.59-5.09-1.78
				c-1.26-1.19-1.9-2.77-1.9-4.74c0-4.81,3.51-7.21,10.54-7.21h3.19v-0.28c0-3.67-1.79-5.5-5.36-5.5c-2.03,0-3.99,0.68-5.87,2.03
				l-1.02-1.71c2.13-1.94,4.72-2.91,7.77-2.91c2.43,0,4.3,0.76,5.59,2.27c1.29,1.51,1.94,3.68,1.94,6.52V336.16z M472.36,325.25
				h-2.82c-5.06,0-7.58,1.56-7.58,4.67c0,1.33,0.39,2.37,1.18,3.12c0.79,0.76,1.89,1.13,3.31,1.13c1.23,0,2.42-0.31,3.56-0.92
				c1.14-0.62,1.93-1.39,2.36-2.31V325.25z"/>
			<path class="st5" d="M496.22,316.97l-2.54,1.76c-1.05-0.92-2.17-1.39-3.38-1.39c-1.76,0-3.31,0.91-4.67,2.73v16.09h-3.1v-20.99
				h2.63l0.28,2.22h0.09c1.82-1.85,3.68-2.77,5.59-2.77C493.38,314.62,495.08,315.4,496.22,316.97z"/>
			<path class="st5" d="M510.96,318.31c-1.54-0.8-3.22-1.2-5.04-1.2c-1.23,0-2.2,0.27-2.89,0.81c-0.69,0.54-1.04,1.27-1.04,2.2
				c0,0.99,0.32,1.75,0.95,2.29c0.63,0.54,1.84,1.07,3.63,1.59c2.53,0.77,4.28,1.63,5.27,2.59c0.99,0.96,1.48,2.3,1.48,4.02
				c0,1.82-0.69,3.29-2.06,4.42c-1.37,1.13-3.14,1.69-5.29,1.69c-2.84,0-5.3-0.77-7.4-2.31c0.09-0.15,0.25-0.42,0.46-0.79
				c0.21-0.4,0.4-0.71,0.55-0.92c1.79,0.99,3.71,1.48,5.78,1.48c3.24,0,4.85-1.22,4.85-3.65c0-0.99-0.35-1.76-1.04-2.31
				c-0.69-0.56-1.98-1.08-3.86-1.57c-4.38-1.23-6.56-3.37-6.56-6.43c0-1.63,0.64-2.97,1.92-4.02c1.28-1.05,2.92-1.57,4.92-1.57
				c2.37,0,4.5,0.66,6.38,1.99L510.96,318.31z"/>
		</g>
		<g>
			<path class="st6" d="M162.74,367.61c-3.22,0.12-5.29-0.03-6.21-0.43c-0.92-0.4-1.21-1.06-0.86-1.98
				c0.46-0.69,1.61-1.21,3.45-1.55c1.84-0.34,4.66-0.52,8.45-0.52c1.95,0,3.82-0.03,5.61-0.09c1.78-0.06,4.23-0.26,7.33-0.6
				c3.11-0.34,7.3-0.8,12.59-1.38c5.29-0.57,12.42-1.38,21.39-2.42l31.05-3.62c1.84-2.64,3.77-5.46,5.78-8.45
				c2.01-2.99,4-5.87,5.95-8.63c1.61-2.18,3.36-4.63,5.26-7.33c1.9-2.7,3.79-5.4,5.69-8.11c1.9-2.7,3.71-5.23,5.43-7.59
				c1.72-2.36,3.22-4.4,4.48-6.12c1.84-2.42,3.39-4.46,4.66-6.12c1.26-1.67,2.38-3.05,3.36-4.14c0.98-1.09,1.84-1.95,2.59-2.59
				c0.75-0.63,1.47-1.18,2.16-1.64c2.42-1.26,3.85-1.78,4.31-1.55c1.26,0.23,1.87,0.86,1.81,1.9c-0.06,1.04-0.84,3.57-2.33,7.59
				c-1.15,2.99-2.3,6.3-3.45,9.92c-1.15,3.62-2.19,7.39-3.1,11.3c-0.92,3.91-1.75,7.88-2.5,11.9c-0.75,4.03-1.29,7.82-1.64,11.39
				l-0.52,4.83l9.83-0.34h6.9c2.18,0,3.71,0.06,4.57,0.17c0.86,0.12,1.29,0.34,1.29,0.69c0,0.23-0.4,0.34-1.21,0.34
				c-0.81,0-2.3,0-4.49,0h-5.52l-11.9-0.17l-0.52,5.69c-0.23,1.73-0.34,4-0.34,6.81c0,2.82,0,5.89,0,9.23
				c0,4.6,0.06,9.12,0.17,13.54c0.11,4.43,0.29,7.96,0.52,10.61c0.57,4.6,1.23,8.57,1.98,11.9c0.75,3.33,1.75,6.38,3.02,9.14
				c1.84,3.91,1.49,5.87-1.03,5.87c-1.27,0-2.13-0.34-2.59-1.04c-0.12-0.23-0.32-1.01-0.6-2.33c-0.29-1.32-0.55-2.79-0.78-4.4
				c-0.35-2.3-0.75-4.08-1.21-5.35c-0.46-1.27-1.15-2.65-2.07-4.14c-2.19-3.22-5.29-6.53-9.31-9.92c-4.03-3.39-9.2-7.05-15.53-10.95
				c-2.42-1.49-4.83-2.93-7.25-4.31s-4.63-2.59-6.64-3.62c-2.01-1.04-3.71-1.87-5.09-2.5c-1.38-0.63-2.24-0.95-2.59-0.95
				c-0.46,0.34-1.47,1.67-3.02,3.97c-1.55,2.3-3.25,4.89-5.09,7.76c-1.84,2.87-3.57,5.69-5.18,8.45c-1.61,2.76-2.7,4.77-3.28,6.04
				c-1.61,3.22-2.76,5.23-3.45,6.04c-0.69,0.8-1.67,1.21-2.93,1.21c-0.92,0-1.55-0.2-1.9-0.6c-0.34-0.4-0.26-1.12,0.26-2.16
				c0.52-1.04,1.49-2.53,2.93-4.49c1.44-1.96,3.36-4.49,5.78-7.59c1.72-2.3,3.59-4.77,5.61-7.42c2.01-2.64,3.59-4.83,4.74-6.56
				c2.07-2.76,3.25-4.49,3.54-5.17c0.29-0.69-0.03-1.21-0.95-1.55c-0.92-0.34-2.19-0.78-3.79-1.29c-1.61-0.52-3.34-1-5.17-1.47
				c-1.84-0.46-3.71-0.89-5.61-1.29c-1.9-0.4-3.6-0.72-5.09-0.95c-2.42-0.34-5.06-0.6-7.94-0.78c-2.88-0.17-7.25-0.26-13.11-0.26
				c-3.22,0-7.02,0-11.39,0C173.73,367.44,168.61,367.5,162.74,367.61z M177.75,364.51c-0.46,0.23-0.15,0.37,0.95,0.43
				c1.09,0.06,2.44,0.09,4.05,0.09c7.13,0.12,14.4,0.66,21.82,1.64c7.42,0.98,13.89,2.33,19.41,4.05l4.14,1.38
				c1.15,0.46,2.04,0.75,2.67,0.86c0.63,0.12,1.06,0.17,1.29,0.17c0.23,0,0.86-0.63,1.9-1.9c1.04-1.26,2.18-2.87,3.45-4.83
				l5.35-7.59l0.52-0.86l1.21-1.9l-4.31,0.34c-2.65,0.23-5.98,0.6-10.01,1.12c-4.03,0.52-8.31,1.04-12.85,1.55
				c-4.54,0.52-9.14,1.09-13.8,1.73c-4.66,0.63-8.86,1.21-12.59,1.72c-3.74,0.52-6.84,0.95-9.31,1.29
				C179.16,364.16,177.87,364.39,177.75,364.51z M240.37,364.68c-1.61,2.3-3.08,4.34-4.4,6.12c-1.32,1.78-1.98,2.79-1.98,3.02
				c0,0.23,0.78,0.75,2.33,1.55c1.55,0.81,3.3,1.67,5.26,2.59c2.76,1.38,5.89,3.19,9.4,5.43c3.51,2.24,6.99,4.6,10.44,7.07
				c3.45,2.47,6.67,4.89,9.66,7.25c2.99,2.36,5.29,4.4,6.9,6.12c0.46,0.46,1.04,0.92,1.72,1.38c0.34,0.23,0.63,0.46,0.86,0.69
				c0-2.19,0.06-4.54,0.17-7.07c0-2.19,0.03-4.74,0.09-7.68c0.06-2.93,0.09-6.06,0.09-9.4c0-3.22,0-6.35,0-9.4c0-3.05,0-5.78,0-8.19
				s0.03-4.4,0.09-5.95c0.06-1.55,0.14-2.5,0.26-2.85l0.69-2.59l-5.17,0.34l-17.6,1.55l-12.76,1.38L240.37,364.68z M250.03,350.88
				c-1.96,2.65-2.36,3.97-1.21,3.97c-0.23,0,0.23-0.03,1.38-0.09c1.15-0.06,2.42-0.2,3.79-0.43l7.07-0.69
				c3.22-0.34,6.38-0.66,9.49-0.95c3.11-0.29,5.29-0.49,6.55-0.6c1.96-0.11,3.22-0.26,3.8-0.43c0.57-0.17,0.86-0.49,0.86-0.95
				c0-0.34,0.2-1.61,0.6-3.79c0.4-2.18,0.89-4.86,1.47-8.02c0.57-3.16,1.23-6.58,1.98-10.26c0.75-3.68,1.44-7.22,2.07-10.61
				c0.63-3.39,1.23-6.44,1.81-9.14c0.57-2.7,0.98-4.57,1.21-5.61c0.23-1.15-0.06-1.95-0.86-2.42c-0.92,0-2.7,1.15-5.35,3.45
				c-1.73,1.73-3.6,3.77-5.61,6.12c-2.01,2.36-4.37,5.35-7.07,8.97c-2.7,3.62-5.84,7.99-9.4,13.11
				C259.06,337.62,254.86,343.75,250.03,350.88z"/>
			<path class="st6" d="M296.43,368.82c-0.58,1.96-1.09,3.94-1.55,5.95c-0.46,2.01-0.69,3.48-0.69,4.4l-0.17,3.62l4.31-5.52
				c3.1-3.79,5.32-6.38,6.64-7.76c1.32-1.38,2.27-1.9,2.85-1.55c0.34,0.12,0.89,0.6,1.64,1.47c0.75,0.86,1.47,1.75,2.16,2.67
				c0.8,1.04,1.67,2.04,2.59,3.02c0.92,0.98,1.67,1.58,2.24,1.81c1.26,0.34,3.05,0.29,5.35-0.17c2.3-0.46,4.94-1.38,7.94-2.76
				c1.84-0.92,2.87-1.23,3.11-0.95c0.23,0.29-0.46,0.89-2.07,1.81c-2.42,1.61-4.83,2.85-7.25,3.71s-4.31,1.29-5.69,1.29
				c-0.58,0-1.29-0.2-2.16-0.6c-0.86-0.4-1.72-0.92-2.59-1.55c-0.86-0.63-1.7-1.35-2.5-2.16c-0.81-0.8-1.44-1.61-1.9-2.42
				c-0.23-0.69-0.55-1.29-0.95-1.81c-0.4-0.52-0.72-0.78-0.95-0.78c-0.23,0-0.75,0.46-1.55,1.38c-0.81,0.92-1.73,2.01-2.76,3.28
				c-1.04,1.27-2.13,2.67-3.28,4.23c-1.15,1.55-2.13,2.91-2.93,4.05c-0.92,1.61-1.98,2.53-3.19,2.76c-1.21,0.23-1.98-0.29-2.33-1.55
				c-0.34-1.26-0.46-3.25-0.34-5.95c0.12-2.7,0.57-6.35,1.38-10.95c0.46-1.84,0.8-3.28,1.04-4.31c0.23-1.04,0.49-1.81,0.78-2.33
				c0.29-0.52,0.54-0.86,0.78-1.04c0.23-0.17,0.57-0.26,1.04-0.26c1.61-0.23,2.47,0.26,2.59,1.47
				C298.1,362.52,297.58,365.02,296.43,368.82z"/>
			<path class="st6" d="M335.08,368.82c-0.58,1.96-1.09,3.94-1.55,5.95c-0.46,2.01-0.69,3.48-0.69,4.4l-0.17,3.62l4.31-5.52
				c3.1-3.79,5.32-6.38,6.64-7.76c1.32-1.38,2.27-1.9,2.85-1.55c0.34,0.12,0.89,0.6,1.64,1.47c0.75,0.86,1.47,1.75,2.16,2.67
				c0.8,1.04,1.67,2.04,2.59,3.02c0.92,0.98,1.67,1.58,2.24,1.81c1.26,0.34,3.05,0.29,5.35-0.17c2.3-0.46,4.94-1.38,7.94-2.76
				c1.84-0.92,2.87-1.23,3.11-0.95c0.23,0.29-0.46,0.89-2.07,1.81c-2.42,1.61-4.83,2.85-7.25,3.71s-4.31,1.29-5.69,1.29
				c-0.58,0-1.29-0.2-2.16-0.6c-0.86-0.4-1.72-0.92-2.59-1.55c-0.86-0.63-1.7-1.35-2.5-2.16c-0.81-0.8-1.44-1.61-1.9-2.42
				c-0.23-0.69-0.55-1.29-0.95-1.81c-0.4-0.52-0.72-0.78-0.95-0.78c-0.23,0-0.75,0.46-1.55,1.38c-0.81,0.92-1.73,2.01-2.76,3.28
				c-1.04,1.27-2.13,2.67-3.28,4.23c-1.15,1.55-2.13,2.91-2.93,4.05c-0.92,1.61-1.98,2.53-3.19,2.76c-1.21,0.23-1.98-0.29-2.33-1.55
				c-0.34-1.26-0.46-3.25-0.34-5.95c0.12-2.7,0.57-6.35,1.38-10.95c0.46-1.84,0.8-3.28,1.04-4.31c0.23-1.04,0.49-1.81,0.78-2.33
				c0.29-0.52,0.54-0.86,0.78-1.04c0.23-0.17,0.57-0.26,1.04-0.26c1.61-0.23,2.47,0.26,2.59,1.47
				C336.74,362.52,336.22,365.02,335.08,368.82z"/>
			<path class="st6" d="M371.99,364.85c0.92,0,1.44,0.49,1.55,1.47c0.11,0.98-0.12,2.16-0.69,3.54c-1.15,2.42-2.01,4.77-2.59,7.07
				c-0.58,2.3-0.86,4.26-0.86,5.87c0,2.99,0.92,4.6,2.76,4.83c1.49,0.23,3.51-0.83,6.04-3.19c2.53-2.36,4.94-5.32,7.25-8.88
				c0.23-0.34,0.52-0.83,0.86-1.47c0.34-0.63,0.63-1.12,0.86-1.47c1.04-1.73,1.72-2.87,2.07-3.45c0.34-0.57,0.57-0.8,0.69-0.69
				c0.35,0.35,0.26,1.21-0.26,2.59s-1.32,2.96-2.42,4.74c-1.09,1.78-2.39,3.62-3.88,5.52c-1.5,1.9-2.99,3.54-4.49,4.92
				c-1.27,1.15-2.44,2.04-3.54,2.67c-1.09,0.63-2.16,0.95-3.19,0.95c-1.73,0-2.93-0.52-3.62-1.55c-1.84-2.3-2.76-5.4-2.76-9.32
				c0-1.15,0.09-2.39,0.26-3.71c0.17-1.32,0.49-2.67,0.95-4.05C368.37,366.98,370.03,364.85,371.99,364.85z M378.03,352.26
				c-1.84,3.45-3.05,3.79-3.62,1.04c-0.23-1.26,0-2.47,0.69-3.62c0.69-1.15,1.49-1.84,2.42-2.07c1.15-0.23,1.75,0.09,1.81,0.95
				C379.38,349.41,378.95,350.65,378.03,352.26z"/>
			<path class="st6" d="M386.48,385.72c-0.23-0.23-0.38-0.89-0.43-1.98c-0.06-1.09-0.06-2.36,0-3.79c0.06-1.44,0.14-2.93,0.26-4.49
				c0.11-1.55,0.29-2.9,0.52-4.05c0.23-1.26,0.37-2.47,0.43-3.62c0.06-1.15-0.03-2.01-0.26-2.59c-0.23-1.04,0.14-2.13,1.12-3.28
				c0.98-1.15,2.04-1.61,3.19-1.38c1.04,0.23,1.55,0.86,1.55,1.9s-0.52,2.7-1.55,5c-0.46,1.03-0.92,2.44-1.38,4.23
				c-0.46,1.78-0.86,3.54-1.21,5.26c-0.34,1.72-0.6,3.28-0.78,4.66c-0.17,1.38-0.15,2.19,0.09,2.42c0.23,0,1.06-0.89,2.5-2.67
				c1.44-1.78,3.13-3.99,5.09-6.64c1.84-2.53,3.85-5.09,6.04-7.68c2.18-2.59,4.25-4.89,6.21-6.9c1.95-2.01,3.68-3.65,5.17-4.92
				c1.49-1.26,2.53-1.9,3.11-1.9c0.8,0.23,1.23,0.72,1.29,1.47c0.06,0.75-0.26,1.12-0.95,1.12c-0.92,0-2.13,0.58-3.62,1.73
				c-1.5,1.15-3.19,2.73-5.09,4.74c-1.9,2.01-3.91,4.43-6.04,7.25c-2.13,2.82-4.29,5.89-6.47,9.23c-1.84,2.88-3.22,4.83-4.14,5.87
				c-0.92,1.04-1.78,1.55-2.59,1.55c-0.46,0-0.89-0.03-1.29-0.09C386.85,386.1,386.59,385.95,386.48,385.72z"/>
			<path class="st6" d="M413.39,378.3c-1.27,1.04-2.04,1.58-2.33,1.64c-0.29,0.06-0.32,0.49-0.09,1.29
				c1.04,3.79,2.93,5.49,5.69,5.09c2.76-0.4,5.87-3.65,9.32-9.75c0.92-1.61,1.78-3.19,2.59-4.74c0.8-1.55,1.21-2.44,1.21-2.67
				c0-0.34,0.29-0.52,0.86-0.52c0.69,0,0.8,0.38,0.35,1.12c-0.46,0.75-1.55,2.79-3.28,6.12c-2.07,4.03-3.94,7.02-5.61,8.97
				c-1.67,1.96-3.19,3.19-4.57,3.71c-1.38,0.52-2.67,0.46-3.88-0.17c-1.21-0.63-2.33-1.47-3.36-2.5c-0.58-0.57-1.21-1.47-1.9-2.67
				c-0.69-1.21-1.15-2.27-1.38-3.19c-0.23-0.57-0.52-1.01-0.86-1.29c-0.34-0.29-1.15-0.66-2.42-1.12c-0.57-0.23-1.12-0.4-1.64-0.52
				c-0.52-0.11-0.66-0.63-0.43-1.55v0.17c0.46-1.61,0.89-2.56,1.29-2.85c0.4-0.29,1.24-0.32,2.5-0.09c1.27,0.12,2.1,0.06,2.5-0.17
				c0.4-0.23,0.89-0.98,1.47-2.24c0.57-1.95,1.64-3.85,3.19-5.69c1.55-1.84,2.79-2.93,3.71-3.28c1.49-0.23,2.56-0.11,3.19,0.34
				c0.63,0.46,0.95,1.5,0.95,3.11c0,2.07-0.69,4.43-2.07,7.07C417.01,374.57,415.34,376.7,413.39,378.3z M411.32,372.27
				c0,0.81,0.66,0.75,1.98-0.17c1.32-0.92,2.38-2.07,3.19-3.45c0.8-1.26,1.15-2.47,1.03-3.62c-0.12-1.15-0.52-1.55-1.21-1.21
				c-0.23,0.23-0.63,0.72-1.21,1.47c-0.58,0.75-1.15,1.61-1.72,2.59c-0.58,0.98-1.06,1.87-1.47,2.67
				C411.52,371.35,411.32,371.92,411.32,372.27z"/>
			<path class="st6" d="M455.82,371.75c2.18-1.04,3.39-1.52,3.62-1.47c0.23,0.06-0.58,0.84-2.42,2.33
				c-0.92,0.81-2.27,1.61-4.05,2.42c-1.79,0.81-3.6,0.92-5.43,0.34c-0.81-0.23-1.75-0.86-2.85-1.9c-1.09-1.04-1.75-2.93-1.98-5.69
				c-0.12-0.8-0.29-1.09-0.52-0.86c-0.23,0.23-0.81,0.81-1.72,1.72c-0.46,0.58-1.09,1.47-1.9,2.67c-0.81,1.21-1.64,2.56-2.5,4.05
				c-0.86,1.5-1.67,3.02-2.42,4.57c-0.75,1.55-1.35,2.91-1.81,4.05c-0.58,1.27-1.24,2.19-1.98,2.76c-0.75,0.57-1.41,0.57-1.98,0
				c-0.69-0.46-1.06-1.95-1.12-4.49c-0.06-2.53,0.09-5.23,0.43-8.11c0.35-2.87,0.83-5.61,1.47-8.19c0.63-2.59,1.29-4.23,1.98-4.92
				c0.57-0.35,1.26-0.49,2.07-0.43c0.8,0.06,1.44,0.32,1.9,0.78c0,0.46-0.12,1.15-0.34,2.07c-0.23,0.92-0.63,1.84-1.21,2.76
				c-0.58,1.38-1.12,2.91-1.64,4.57c-0.52,1.67-0.95,3.28-1.29,4.83c-0.34,1.55-0.58,2.96-0.69,4.23c-0.12,1.27-0.06,2.13,0.17,2.59
				c0.69-1.73,1.55-3.51,2.59-5.35c1.04-1.84,2.16-3.59,3.36-5.26c1.21-1.67,2.36-3.19,3.45-4.57c1.09-1.38,2.04-2.53,2.85-3.45
				c1.26-1.49,2.18-2.36,2.76-2.59c0.57-0.23,1.26,0.06,2.07,0.86c0.46,0.34,0.69,0.83,0.69,1.47c0,0.63-0.17,1.81-0.52,3.54
				c-0.46,3.34,0.09,5.35,1.64,6.04C450.05,373.82,452.49,373.36,455.82,371.75z"/>
			<path class="st6" d="M482.39,369.68c0,0.23-0.69,0.75-2.07,1.55c-1.38,0.81-3.1,1.72-5.17,2.76c-1.84,1.04-3.25,1.84-4.23,2.42
				c-0.98,0.58-1.7,1.06-2.16,1.47c-0.46,0.4-0.66,0.81-0.6,1.21c0.06,0.4,0.2,0.84,0.43,1.29c0.57,1.5,0.52,2.85-0.17,4.05
				c-0.69,1.21-2.24,2.73-4.66,4.57c-10.46,7.82-16.79,11.15-18.98,10c-0.11-0.23-0.23-0.63-0.34-1.21
				c-0.11-0.58-0.17-1.09-0.17-1.55c0-1.84,1.55-4.11,4.66-6.81c3.1-2.7,7.65-6.01,13.63-9.92c1.04-0.57,1.47-1.12,1.29-1.64
				c-0.17-0.52-1.35-1.58-3.54-3.19c-1.61-1.26-2.82-2.33-3.62-3.19c-0.81-0.86-1.21-1.75-1.21-2.67c0-1.04,0.63-2.18,1.9-3.45
				c1.26-1.26,2.99-2.59,5.18-3.97c2.99-1.95,5.17-3.16,6.55-3.62c1.38-0.46,2.59-0.23,3.62,0.69c0.92,0.69,1.35,1.24,1.29,1.64
				c-0.06,0.4-0.55,1.18-1.47,2.33h0.17c-1.15,1.15-2.42,1.72-3.79,1.72c-0.58,0-1.38,0.23-2.42,0.69c-1.04,0.46-2.1,0.98-3.19,1.55
				c-1.09,0.58-2.04,1.15-2.85,1.72c-0.81,0.58-1.21,0.98-1.21,1.21c0,0.23,0.35,0.69,1.04,1.38c0.69,0.69,1.55,1.5,2.59,2.42
				c0.11,0,0.2,0.06,0.26,0.17c0.06,0.12,0.14,0.17,0.26,0.17h-0.17l4.31,3.62l6.9-4.14c3.33-1.95,5.49-3.13,6.47-3.54
				C481.9,369.02,482.39,369.11,482.39,369.68z M455.48,390.73c7.47-3.91,11.21-6.73,11.21-8.45c0-1.38-0.63-1.9-1.9-1.55
				c-1.27,0.34-3.39,1.5-6.38,3.45c-1.38,1.04-2.73,2.13-4.05,3.28c-1.32,1.15-2.5,2.21-3.54,3.19c-1.04,0.98-1.78,1.81-2.24,2.5
				c-0.46,0.69-0.52,1.03-0.17,1.03c0.23,0,0.86-0.26,1.9-0.78c1.04-0.52,2.36-1.18,3.97-1.98l1.21-0.86V390.73z"/>
			<path class="st6" d="M497.22,367.61c-0.58,1.84-1.04,3.48-1.38,4.92c-0.35,1.44-0.63,2.79-0.86,4.05
				c-0.23,1.27-0.37,2.53-0.43,3.79c-0.06,1.27-0.09,2.7-0.09,4.31c-0.12,4.71,0.17,7.68,0.86,8.88c0.69,1.21,1.84,0.83,3.45-1.12
				h-0.17c0.69-0.69,1.78-2.3,3.28-4.83c1.49-2.53,3.05-5.29,4.66-8.28c2.76-5.17,4.66-8.51,5.69-10c1.04-1.49,1.55-1.61,1.55-0.35
				c0,0.35-0.32,1.21-0.95,2.59c-0.63,1.38-1.44,3.02-2.42,4.92c-0.98,1.9-2.04,3.88-3.19,5.95c-1.15,2.07-2.27,4.03-3.36,5.87
				c-1.09,1.84-2.1,3.42-3.02,4.74c-0.92,1.32-1.55,2.16-1.9,2.5c-1.04,0.8-1.87,1.21-2.5,1.21c-0.63,0-1.47-0.29-2.5-0.86
				c-1.27-0.69-2.24-2.1-2.93-4.23c-0.69-2.13-1.04-4.68-1.04-7.68c0-0.92,0-1.87,0-2.85c0-0.98,0.11-1.98,0.34-3.02
				c0.11-0.8,0.17-1.52,0.17-2.16c0-0.63,0.06-1.23,0.17-1.81c0-0.57,0.06-1.15,0.17-1.73c-0.34-0.34-0.95,0.06-1.81,1.21
				c-0.86,1.15-1.81,2.53-2.85,4.14c-4.14,6.21-7.3,9.32-9.49,9.32c-1.26,0-2.24-0.43-2.93-1.29s-1.04-1.98-1.04-3.36
				c0-2.18,0.75-4.6,2.24-7.25c2.87-5.52,6.27-8.28,10.18-8.28c1.84,0,2.93,0.17,3.28,0.52c0.92,1.15,1.78,1.24,2.59,0.26
				c0.8-0.98,1.84-3.3,3.1-6.99c0.46-1.49,0.86-2.44,1.21-2.85c0.34-0.4,0.92-0.66,1.72-0.78c1.26-0.23,2.01,0.06,2.24,0.86
				c0.11,0.23-0.03,1.29-0.43,3.19C498.46,363.04,497.91,365.19,497.22,367.61z M481.01,381.24c5.4-6.21,6.44-9.32,3.11-9.32
				c-0.69,0-1.52,0.4-2.49,1.21c-0.97,0.81-1.87,1.75-2.71,2.85c-0.84,1.09-1.56,2.24-2.17,3.45c-0.61,1.21-0.92,2.22-0.92,3.02
				c0,1.27,0.53,1.81,1.58,1.64c1.06-0.17,2.31-1.12,3.76-2.85H481.01z"/>
			<path class="st6" d="M537.93,371.75c2.18-1.04,3.39-1.52,3.62-1.47c0.23,0.06-0.58,0.84-2.42,2.33
				c-0.92,0.81-2.27,1.61-4.05,2.42c-1.79,0.81-3.6,0.92-5.43,0.34c-0.81-0.23-1.75-0.86-2.85-1.9c-1.09-1.04-1.75-2.93-1.98-5.69
				c-0.12-0.8-0.29-1.09-0.52-0.86c-0.23,0.23-0.81,0.81-1.72,1.72c-0.46,0.58-1.09,1.47-1.9,2.67c-0.81,1.21-1.64,2.56-2.5,4.05
				c-0.86,1.5-1.67,3.02-2.42,4.57c-0.75,1.55-1.35,2.91-1.81,4.05c-0.58,1.27-1.24,2.19-1.98,2.76c-0.75,0.57-1.41,0.57-1.98,0
				c-0.69-0.46-1.06-1.95-1.12-4.49c-0.06-2.53,0.09-5.23,0.43-8.11c0.35-2.87,0.83-5.61,1.47-8.19c0.63-2.59,1.29-4.23,1.98-4.92
				c0.57-0.35,1.26-0.49,2.07-0.43c0.8,0.06,1.44,0.32,1.9,0.78c0,0.46-0.12,1.15-0.34,2.07c-0.23,0.92-0.63,1.84-1.21,2.76
				c-0.58,1.38-1.12,2.91-1.64,4.57c-0.52,1.67-0.95,3.28-1.29,4.83c-0.34,1.55-0.58,2.96-0.69,4.23c-0.12,1.27-0.06,2.13,0.17,2.59
				c0.69-1.73,1.55-3.51,2.59-5.35c1.04-1.84,2.16-3.59,3.36-5.26c1.21-1.67,2.36-3.19,3.45-4.57c1.09-1.38,2.04-2.53,2.85-3.45
				c1.26-1.49,2.18-2.36,2.76-2.59c0.57-0.23,1.26,0.06,2.07,0.86c0.46,0.34,0.69,0.83,0.69,1.47c0,0.63-0.17,1.81-0.52,3.54
				c-0.46,3.34,0.09,5.35,1.64,6.04C532.15,373.82,534.6,373.36,537.93,371.75z"/>
			<path class="st6" d="M555.53,386.59c1.26-0.8,2.1-1.58,2.5-2.33c0.4-0.75,0.83-2.16,1.29-4.23c0.92-4.6,1.49-7.99,1.72-10.18
				c0.23-2.18,0.17-3.56-0.17-4.14c-0.23-0.34-0.83-0.14-1.81,0.6c-0.98,0.75-2.22,1.87-3.71,3.36c-1.5,1.5-3.11,3.22-4.83,5.17
				c-1.73,1.96-3.39,3.97-5,6.04c-1.27,1.84-2.5,3.48-3.71,4.92c-1.21,1.44-1.93,2.21-2.16,2.33c-0.69,0.46-1.47,0.32-2.33-0.43
				c-0.86-0.75-1.58-1.64-2.16-2.67c-0.34-1.26-0.37-2.9-0.09-4.92c0.29-2.01,0.78-3.97,1.47-5.87c0.69-1.9,1.52-3.54,2.5-4.92
				c0.98-1.38,1.98-2.13,3.02-2.24c1.26-0.23,2.16,0.06,2.67,0.86c0.52,0.81,0.43,1.79-0.26,2.93c-0.34,0.58-0.75,1.5-1.21,2.76
				c-0.46,1.27-0.89,2.53-1.29,3.79c-0.4,1.27-0.72,2.39-0.95,3.36c-0.23,0.98-0.29,1.53-0.17,1.64c0.23,0.23,0.63,0.03,1.21-0.6
				c0.57-0.63,1.32-1.41,2.24-2.33c3.56-4.02,6.44-7.22,8.63-9.57c2.18-2.36,3.94-4.08,5.26-5.17c1.32-1.09,2.36-1.73,3.11-1.9
				c0.75-0.17,1.41-0.03,1.98,0.43c0.69,0.58,1.04,2.13,1.04,4.66c0,2.19-0.29,4.54-0.86,7.07c-0.23,1.04-0.4,2.01-0.52,2.93
				c-0.12,0.92-0.17,1.5-0.17,1.72c0.23,0.35,0.89,0.26,1.98-0.26c1.09-0.52,2.38-1.23,3.88-2.16c3.33-2.3,6.12-3.94,8.37-4.92
				c2.24-0.98,3.65-1.18,4.23-0.6c0.57,0.46,0.52,0.95-0.17,1.47c-0.69,0.52-1.67,0.89-2.93,1.12c-0.81,0.23-2.1,0.78-3.88,1.64
				c-1.78,0.86-3.65,1.87-5.61,3.02l-7.07,4.14c-0.23,0.92-0.46,1.9-0.69,2.93c-0.23,1.04-0.46,2.01-0.69,2.93
				c-0.92,3.11-2.07,6.64-3.45,10.61s-2.85,7.85-4.4,11.64c-1.55,3.79-3.08,7.25-4.57,10.35c-1.5,3.11-2.76,5.35-3.79,6.73
				c-1.84,2.64-4.2,4.43-7.07,5.35c-2.87,0.92-5.35,0.75-7.42-0.52c-2.53-1.61-3.79-3.79-3.79-6.55c0-2.19,0.69-4.8,2.07-7.85
				c1.38-3.05,3.39-6.41,6.04-10.09c0.92-1.27,1.75-2.39,2.5-3.36c0.75-0.98,1.24-1.53,1.47-1.64c0.23-0.23,1.06-1.15,2.5-2.76
				c1.44-1.61,3.13-3.39,5.09-5.35c1.95-1.96,3.91-3.8,5.87-5.52C553.17,388.31,554.61,387.16,555.53,386.59z M558.12,386.24
				l-5.52,4.31c-7.93,6.67-13.92,13.34-17.94,20.01c-4.02,6.67-5.4,12.19-4.14,16.56c1.38,4.6,4.14,4.77,8.28,0.52
				c1.38-1.38,3.05-3.65,5-6.81c1.96-3.16,3.82-6.61,5.61-10.35c1.78-3.74,3.39-7.45,4.83-11.13c1.44-3.68,2.44-6.84,3.02-9.49
				L558.12,386.24z"/>
		</g>
	</g>
</g>
</svg>
