<svg xmlns="http://www.w3.org/2000/svg" xmlns:xlink="http://www.w3.org/1999/xlink" id="_x2014_ÎÓÈ_x5F_1" x="0px" y="0px" viewBox="0 0 59.932 60" style="enable-background:new 0 0 59.932 60;" xml:space="preserve"><g> <path style="fill:#263238;" d="M38.66,20.979c0.045,0.072,0.097,0.141,0.16,0.203c0.061,0.061,0.129,0.113,0.2,0.158  c0.117,0.124,0.235,0.253,0.352,0.389c0.23,0.267,0.554,0.404,0.88,0.404c0.267,0,0.535-0.091,0.753-0.277  c0.432-0.372,0.522-0.99,0.244-1.464l1.661-1.661c0.453-0.453,0.453-1.185,0-1.638c-0.451-0.45-1.187-0.45-1.638,0l-1.663,1.663  c-0.477-0.28-1.103-0.191-1.474,0.254c-0.411,0.49-0.343,1.222,0.148,1.631C38.408,20.745,38.534,20.86,38.66,20.979z"/> <path style="fill:#263238;" d="M29.967,8.853c2.44,0,4.425-1.985,4.425-4.427c0-0.641-0.516-1.157-1.157-1.157  c-0.641,0-1.157,0.516-1.157,1.157c0,1.166-0.948,2.114-2.112,2.114c-1.204,0-2.114-0.91-2.114-2.114  c0-1.164,0.948-2.112,2.114-2.112c0.641,0,1.157-0.516,1.157-1.157C31.124,0.516,30.608,0,29.967,0  c-2.443,0-4.427,1.985-4.427,4.425C25.54,6.907,27.485,8.853,29.967,8.853z"/> <path style="fill:#263238;" d="M33.236,54.418c-0.641,0-1.157,0.516-1.157,1.157c0,1.124-0.988,2.112-2.112,2.112  c-1.166,0-2.114-0.948-2.114-2.112c0-1.166,0.948-2.114,2.114-2.114c0.641,0,1.157-0.516,1.157-1.157  c0-0.641-0.516-1.157-1.157-1.157c-2.443,0-4.427,1.985-4.427,4.428c0,2.44,1.985,4.425,4.427,4.425c2.4,0,4.425-2.025,4.425-4.425  C34.392,54.934,33.876,54.418,33.236,54.418z"/> <path style="fill:#263238;" d="M7.628,28.878c-0.641,0-1.157,0.516-1.157,1.157c0,1.145-0.936,2.112-2.044,2.112  c-1.166,0-2.114-0.948-2.114-2.112c0-1.204,0.91-2.114,2.114-2.114c0.641,0,1.157-0.516,1.157-1.157  c0-0.641-0.516-1.157-1.157-1.157C1.945,25.608,0,27.553,0,30.035c0,2.44,1.985,4.425,4.427,4.425c2.403,0,4.357-1.985,4.357-4.425  C8.785,29.395,8.268,28.878,7.628,28.878z"/> <path style="fill:#263238;" d="M58.775,28.878c-0.64,0-1.157,0.516-1.157,1.157c0,1.164-0.948,2.112-2.112,2.112  c-1.126,0-2.114-0.988-2.114-2.112c0-1.166,0.948-2.114,2.114-2.114c0.641,0,1.157-0.516,1.157-1.157  c0-0.641-0.516-1.157-1.157-1.157c-2.443,0-4.427,1.985-4.427,4.427c0,2.4,2.027,4.425,4.427,4.425c2.44,0,4.425-1.985,4.425-4.425  C59.932,29.395,59.416,28.878,58.775,28.878z"/> <path style="fill:#263238;" d="M12.191,16.48c2.482,0,4.425-1.943,4.425-4.425c0-0.64-0.516-1.157-1.157-1.157  s-1.157,0.516-1.157,1.157c0,1.204-0.908,2.112-2.112,2.112c-1.164,0-2.112-0.948-2.112-2.112c0-1.126,0.988-2.114,2.112-2.114  c0.64,0,1.157-0.516,1.157-1.157s-0.516-1.157-1.157-1.157c-2.4,0-4.425,2.027-4.425,4.427C7.766,14.496,9.751,16.48,12.191,16.48z  "/> <path style="fill:#263238;" d="M51.624,47.062c-0.641,0-1.157,0.516-1.157,1.157c0,1.204-0.908,2.112-2.112,2.112  c-1.164,0-2.112-0.948-2.112-2.112c0-1.126,0.988-2.114,2.112-2.114c0.641,0,1.157-0.516,1.157-1.157s-0.516-1.157-1.157-1.157  c-2.4,0-4.425,2.027-4.425,4.427c0,2.44,1.985,4.425,4.425,4.425c2.482,0,4.425-1.943,4.425-4.425  C52.78,47.579,52.264,47.062,51.624,47.062z"/> <path style="fill:#263238;" d="M15.46,47.062c-0.641,0-1.157,0.516-1.157,1.157c0,1.204-0.908,2.112-2.112,2.112  c-1.164,0-2.112-0.948-2.112-2.112c0-1.126,0.988-2.114,2.112-2.114c0.64,0,1.157-0.516,1.157-1.157s-0.516-1.157-1.157-1.157  c-2.4,0-4.425,2.027-4.425,4.427c0,2.44,1.985,4.425,4.425,4.425c2.482,0,4.425-1.943,4.425-4.425  C16.617,47.579,16.1,47.062,15.46,47.062z"/> <path style="fill:#263238;" d="M48.355,16.48c2.482,0,4.425-1.943,4.425-4.425c0-0.64-0.516-1.157-1.157-1.157  c-0.641,0-1.157,0.516-1.157,1.157c0,1.204-0.908,2.112-2.112,2.112c-1.164,0-2.112-0.948-2.112-2.112  c0-1.126,0.988-2.114,2.112-2.114c0.641,0,1.157-0.516,1.157-1.157s-0.516-1.157-1.157-1.157c-2.4,0-4.425,2.027-4.425,4.427  C43.93,14.496,45.915,16.48,48.355,16.48z"/> <path style="fill:#263238;" d="M41.224,39.652c1.996-2.312,3.286-5.242,3.538-8.46h2.298c0.641,0,1.157-0.516,1.157-1.157  s-0.516-1.157-1.157-1.157h-2.296c-0.132-1.74-0.557-3.412-1.282-4.984c-0.267-0.579-0.96-0.835-1.537-0.565  c-0.579,0.267-0.833,0.955-0.565,1.537c0.742,1.609,1.119,3.348,1.119,5.169c0,6.872-5.622,12.464-12.532,12.464  s-12.534-5.591-12.534-12.464c0-3.432,1.389-6.547,3.633-8.813c0.016-0.014,0.034-0.025,0.049-0.04  c0.015-0.015,0.026-0.033,0.04-0.049c2.266-2.243,5.38-3.632,8.812-3.632c1.821,0,3.559,0.378,5.167,1.122  c0.577,0.265,1.269,0.016,1.537-0.566c0.267-0.579,0.014-1.269-0.566-1.537c-1.569-0.725-3.241-1.152-4.981-1.284v-2.365  c0-0.641-0.516-1.157-1.157-1.157c-0.641,0-1.157,0.516-1.157,1.157v2.365c-3.225,0.25-6.163,1.532-8.484,3.519l-1.663-1.663  c-0.45-0.45-1.187-0.45-1.638,0c-0.453,0.453-0.453,1.185,0,1.638l1.663,1.663c-1.987,2.321-3.269,5.259-3.519,8.484h-2.365  c-0.641,0-1.157,0.516-1.157,1.157s0.516,1.157,1.157,1.157h2.366c0.252,3.218,1.542,6.149,3.539,8.462l-1.684,1.684  c-0.453,0.453-0.453,1.185,0,1.638c0.225,0.225,0.523,0.338,0.819,0.338c0.296,0,0.594-0.113,0.819-0.338l1.691-1.691  c2.317,1.964,5.244,3.231,8.457,3.479v2.365c0,0.641,0.516,1.157,1.157,1.157c0.641,0,1.157-0.516,1.157-1.157v-2.365  c3.212-0.248,6.139-1.516,8.456-3.48l1.692,1.692c0.225,0.225,0.523,0.338,0.819,0.338c0.296,0,0.594-0.113,0.819-0.338  c0.453-0.453,0.453-1.185,0-1.638L41.224,39.652z"/> <path style="fill:#263238;" d="M29.967,27.921c0.641,0,1.157-0.516,1.157-1.157c0-0.641-0.516-1.157-1.157-1.157  c-2.482,0-4.427,1.945-4.427,4.427c0,2.44,1.985,4.425,4.427,4.425c2.4,0,4.425-2.025,4.425-4.425c0-0.641-0.516-1.157-1.157-1.157  c-0.641,0-1.157,0.516-1.157,1.157c0,1.124-0.988,2.112-2.112,2.112c-1.166,0-2.114-0.948-2.114-2.112  C27.853,28.832,28.763,27.921,29.967,27.921z"/></g></svg>