<svg xmlns="http://www.w3.org/2000/svg" id="Layer_2" viewBox="0 0 119.29 119.29"><defs><style>.cls-1{fill:#5dbeba;}</style></defs><g id="Layer_1-2"><g><path class="cls-1" d="M109.35,0H9.94C4.47,0,0,4.47,0,9.94V79.53c0,5.46,4.47,9.94,9.94,9.94H57.16v-9.94H9.94V9.94H109.35V79.53h-7.46v9.94h7.46c5.46,0,9.94-4.47,9.94-9.94V9.94c0-5.47-4.47-9.94-9.94-9.94Z"></path><path class="cls-1" d="M94.36,88.47c.35-1.35,2.56-2.52,2.56-3.98s-2.21-2.62-2.56-3.98c-.38-1.4,.94-3.5,.23-4.72-.71-1.25-3.21-1.15-4.21-2.15-1.01-1.01-.9-3.51-2.15-4.22-1.22-.71-3.32,.61-4.73,.23-1.35-.35-2.51-2.56-3.98-2.56s-2.62,2.21-3.98,2.56c-1.4,.38-3.5-.95-4.73-.23-1.25,.71-1.15,3.21-2.15,4.21s-3.5,.91-4.21,2.15c-.71,1.23,.61,3.33,.23,4.73-.35,1.35-2.56,2.51-2.56,3.98s2.21,2.62,2.56,3.98c.38,1.4-.95,3.5-.24,4.73,.72,1.25,3.21,1.15,4.21,2.15,.46,.46,.68,1.24,.92,2.01v21.93l9.94-4.97,9.94,4.97v-21.96c.23-.76,.46-1.52,.91-1.98,1.01-1.01,3.51-.9,4.22-2.15,.71-1.22-.61-3.33-.23-4.73Zm-14.83,3.48c-4.13,0-7.46-3.33-7.46-7.46s3.33-7.46,7.46-7.46,7.46,3.33,7.46,7.46-3.34,7.46-7.46,7.46Z"></path><rect class="cls-1" x="34.79" y="19.88" width="49.7" height="9.94"></rect><rect class="cls-1" x="54.68" y="39.76" width="44.73" height="9.94"></rect><rect class="cls-1" x="19.88" y="39.76" width="24.85" height="9.94"></rect><rect class="cls-1" x="19.88" y="59.64" width="9.94" height="9.94"></rect><rect class="cls-1" x="39.76" y="59.64" width="19.88" height="9.94"></rect></g></g></svg>